<?xml version="1.0" encoding="UTF-8" standalone="no"?><svg xmlns="http://www.w3.org/2000/svg" xmlns:xlink="http://www.w3.org/1999/xlink" contentScriptType="application/ecmascript" contentStyleType="text/css" height="704px" preserveAspectRatio="none" style="width:768px;height:704px;" version="1.1" viewBox="0 0 768 704" width="768px" zoomAndPan="magnify"><defs><filter height="300%" id="fgzp2tdgg8kj1" width="300%" x="-1" y="-1"><feGaussianBlur result="blurOut" stdDeviation="2.0"/><feColorMatrix in="blurOut" result="blurOut2" type="matrix" values="0 0 0 0 0 0 0 0 0 0 0 0 0 0 0 0 0 0 .4 0"/><feOffset dx="4.0" dy="4.0" in="blurOut2" result="blurOut3"/><feBlend in="SourceGraphic" in2="blurOut3" mode="normal"/></filter></defs><g><!--cluster fw--><rect fill="#FFFFFF" filter="url(#fgzp2tdgg8kj1)" height="255.5" style="stroke: #000000; stroke-width: 1.5;" width="187" x="22" y="423.5"/><line style="stroke: #000000; stroke-width: 1.5;" x1="22" x2="209" y1="443.9883" y2="443.9883"/><text fill="#000000" font-family="sans-serif" font-size="14" font-weight="bold" lengthAdjust="spacingAndGlyphs" textLength="171" x="30" y="439.0352">Framework/Middleware</text><!--cluster auth--><rect fill="#FFFFFF" filter="url(#fgzp2tdgg8kj1)" height="352" style="stroke: #000000; stroke-width: 1.5;" width="228" x="266" y="24"/><line style="stroke: #000000; stroke-width: 1.5;" x1="266" x2="494" y1="44.4883" y2="44.4883"/><text fill="#000000" font-family="sans-serif" font-size="14" font-weight="bold" lengthAdjust="spacingAndGlyphs" textLength="32" x="364" y="39.5352">auth</text><!--cluster auth.Domain--><rect fill="#FFFFFF" filter="url(#fgzp2tdgg8kj1)" height="203" style="stroke: #000000; stroke-width: 1.5;" width="180" x="290" y="67"/><rect fill="#FFFFFF" height="10" style="stroke: #000000; stroke-width: 1.5;" width="15" x="450" y="72"/><rect fill="#FFFFFF" height="2" style="stroke: #000000; stroke-width: 1.5;" width="4" x="448" y="74"/><rect fill="#FFFFFF" height="2" style="stroke: #000000; stroke-width: 1.5;" width="4" x="448" y="78"/><text fill="#000000" font-family="sans-serif" font-size="14" font-weight="bold" lengthAdjust="spacingAndGlyphs" textLength="91" x="334.5" y="93.5352">auth.Domain</text><!--cluster state--><rect fill="#FFFFFF" filter="url(#fgzp2tdgg8kj1)" height="352" style="stroke: #000000; stroke-width: 1.5;" width="230" x="518" y="24"/><line style="stroke: #000000; stroke-width: 1.5;" x1="518" x2="748" y1="44.4883" y2="44.4883"/><text fill="#000000" font-family="sans-serif" font-size="14" font-weight="bold" lengthAdjust="spacingAndGlyphs" textLength="36" x="615" y="39.5352">state</text><!--cluster state.Domain--><rect fill="#FFFFFF" filter="url(#fgzp2tdgg8kj1)" height="203" style="stroke: #000000; stroke-width: 1.5;" width="182" x="542" y="67"/><rect fill="#FFFFFF" height="10" style="stroke: #000000; stroke-width: 1.5;" width="15" x="704" y="72"/><rect fill="#FFFFFF" height="2" style="stroke: #000000; stroke-width: 1.5;" width="4" x="702" y="74"/><rect fill="#FFFFFF" height="2" style="stroke: #000000; stroke-width: 1.5;" width="4" x="702" y="78"/><text fill="#000000" font-family="sans-serif" font-size="14" font-weight="bold" lengthAdjust="spacingAndGlyphs" textLength="95" x="585.5" y="93.5352">state.Domain</text><!--cluster Infra--><rect fill="#FFFFFF" filter="url(#fgzp2tdgg8kj1)" height="128" style="stroke: #000000; stroke-width: 1.5;" width="515" x="241" y="408"/><line style="stroke: #000000; stroke-width: 1.5;" x1="241" x2="756" y1="428.4883" y2="428.4883"/><text fill="#000000" font-family="sans-serif" font-size="14" font-weight="bold" lengthAdjust="spacingAndGlyphs" textLength="34" x="481.5" y="423.5352">Infra</text><!--cluster Service--><rect fill="#FFFFFF" filter="url(#fgzp2tdgg8kj1)" height="125" style="stroke: #000000; stroke-width: 1.5;" width="220" x="277" y="568"/><line style="stroke: #000000; stroke-width: 1.5;" x1="277" x2="497" y1="588.4883" y2="588.4883"/><text fill="#000000" font-family="sans-serif" font-size="14" font-weight="bold" lengthAdjust="spacingAndGlyphs" textLength="50" x="362" y="583.5352">Service</text><!--entity fw.vertx--><rect fill="#FFFFFF" filter="url(#fgzp2tdgg8kj1)" height="46.4883" style="stroke: #A80036; stroke-width: 1.5;" width="79" x="113.5" y="617"/><rect fill="#FFFFFF" height="10" style="stroke: #A80036; stroke-width: 1.5;" width="15" x="172.5" y="622"/><rect fill="#FFFFFF" height="2" style="stroke: #A80036; stroke-width: 1.5;" width="4" x="170.5" y="624"/><rect fill="#FFFFFF" height="2" style="stroke: #A80036; stroke-width: 1.5;" width="4" x="170.5" y="628"/><text fill="#000000" font-family="sans-serif" font-size="14" lengthAdjust="spacingAndGlyphs" textLength="39" x="128.5" y="650.5352">vert.x</text><!--entity fw.db--><rect fill="#FFFFFF" filter="url(#fgzp2tdgg8kj1)" height="46.4883" style="stroke: #A80036; stroke-width: 1.5;" width="58" x="129" y="458.5"/><rect fill="#FFFFFF" height="10" style="stroke: #A80036; stroke-width: 1.5;" width="15" x="167" y="463.5"/><rect fill="#FFFFFF" height="2" style="stroke: #A80036; stroke-width: 1.5;" width="4" x="165" y="465.5"/><rect fill="#FFFFFF" height="2" style="stroke: #A80036; stroke-width: 1.5;" width="4" x="165" y="469.5"/><text fill="#000000" font-family="sans-serif" font-size="14" lengthAdjust="spacingAndGlyphs" textLength="18" x="144" y="492.0352">DB</text><!--entity auth.Domain.Models--><rect fill="#FFFFFF" filter="url(#fgzp2tdgg8kj1)" height="46.4883" style="stroke: #A80036; stroke-width: 1.5;" width="124" x="318" y="102"/><rect fill="#FFFFFF" height="10" style="stroke: #A80036; stroke-width: 1.5;" width="15" x="422" y="107"/><rect fill="#FFFFFF" height="2" style="stroke: #A80036; stroke-width: 1.5;" width="4" x="420" y="109"/><rect fill="#FFFFFF" height="2" style="stroke: #A80036; stroke-width: 1.5;" width="4" x="420" y="113"/><text fill="#000000" font-family="sans-serif" font-size="14" lengthAdjust="spacingAndGlyphs" textLength="84" x="333" y="135.5352">auth.Models</text><!--entity auth.Domain.Repository--><rect fill="#FFFFFF" filter="url(#fgzp2tdgg8kj1)" height="46.4883" style="stroke: #A80036; stroke-width: 1.5;" width="148" x="306" y="208"/><rect fill="#FFFFFF" height="10" style="stroke: #A80036; stroke-width: 1.5;" width="15" x="434" y="213"/><rect fill="#FFFFFF" height="2" style="stroke: #A80036; stroke-width: 1.5;" width="4" x="432" y="215"/><rect fill="#FFFFFF" height="2" style="stroke: #A80036; stroke-width: 1.5;" width="4" x="432" y="219"/><text fill="#000000" font-family="sans-serif" font-size="14" lengthAdjust="spacingAndGlyphs" textLength="108" x="321" y="241.5352">auth.Repository</text><!--entity auth.UseCase--><rect fill="#FFFFFF" filter="url(#fgzp2tdgg8kj1)" height="46.4883" style="stroke: #A80036; stroke-width: 1.5;" width="133" x="314.5" y="314"/><rect fill="#FFFFFF" height="10" style="stroke: #A80036; stroke-width: 1.5;" width="15" x="427.5" y="319"/><rect fill="#FFFFFF" height="2" style="stroke: #A80036; stroke-width: 1.5;" width="4" x="425.5" y="321"/><rect fill="#FFFFFF" height="2" style="stroke: #A80036; stroke-width: 1.5;" width="4" x="425.5" y="325"/><text fill="#000000" font-family="sans-serif" font-size="14" lengthAdjust="spacingAndGlyphs" textLength="93" x="329.5" y="347.5352">auth.UseCase</text><!--entity state.Domain.Models--><rect fill="#FFFFFF" filter="url(#fgzp2tdgg8kj1)" height="46.4883" style="stroke: #A80036; stroke-width: 1.5;" width="126" x="570" y="102"/><rect fill="#FFFFFF" height="10" style="stroke: #A80036; stroke-width: 1.5;" width="15" x="676" y="107"/><rect fill="#FFFFFF" height="2" style="stroke: #A80036; stroke-width: 1.5;" width="4" x="674" y="109"/><rect fill="#FFFFFF" height="2" style="stroke: #A80036; stroke-width: 1.5;" width="4" x="674" y="113"/><text fill="#000000" font-family="sans-serif" font-size="14" lengthAdjust="spacingAndGlyphs" textLength="86" x="585" y="135.5352">state.Models</text><!--entity state.Domain.Repository--><rect fill="#FFFFFF" filter="url(#fgzp2tdgg8kj1)" height="46.4883" style="stroke: #A80036; stroke-width: 1.5;" width="150" x="558" y="208"/><rect fill="#FFFFFF" height="10" style="stroke: #A80036; stroke-width: 1.5;" width="15" x="688" y="213"/><rect fill="#FFFFFF" height="2" style="stroke: #A80036; stroke-width: 1.5;" width="4" x="686" y="215"/><rect fill="#FFFFFF" height="2" style="stroke: #A80036; stroke-width: 1.5;" width="4" x="686" y="219"/><text fill="#000000" font-family="sans-serif" font-size="14" lengthAdjust="spacingAndGlyphs" textLength="110" x="573" y="241.5352">state.Repository</text><!--entity state.UseCase--><rect fill="#FFFFFF" filter="url(#fgzp2tdgg8kj1)" height="46.4883" style="stroke: #A80036; stroke-width: 1.5;" width="135" x="563.5" y="314"/><rect fill="#FFFFFF" height="10" style="stroke: #A80036; stroke-width: 1.5;" width="15" x="678.5" y="319"/><rect fill="#FFFFFF" height="2" style="stroke: #A80036; stroke-width: 1.5;" width="4" x="676.5" y="321"/><rect fill="#FFFFFF" height="2" style="stroke: #A80036; stroke-width: 1.5;" width="4" x="676.5" y="325"/><text fill="#000000" font-family="sans-serif" font-size="14" lengthAdjust="spacingAndGlyphs" textLength="95" x="578.5" y="347.5352">state.UseCase</text><!--class Infra.authUseCase--><rect fill="#FEFECE" filter="url(#fgzp2tdgg8kj1)" height="60.9551" id="Infra.authUseCase" style="stroke: #A80036; stroke-width: 1.5;" width="205" x="284.5" y="451"/><ellipse cx="329.25" cy="467" fill="#ADD1B2" rx="11" ry="11" style="stroke: #A80036; stroke-width: 1.0;"/><path d="M331.7231,473.1431 Q331.1421,473.4419 330.5029,473.5913 Q329.8638,473.7407 329.1582,473.7407 Q326.6514,473.7407 325.3315,472.0889 Q324.0117,470.437 324.0117,467.3159 Q324.0117,464.1865 325.3315,462.5347 Q326.6514,460.8828 329.1582,460.8828 Q329.8638,460.8828 330.5112,461.0322 Q331.1587,461.1816 331.7231,461.4805 L331.7231,464.2031 Q331.0923,463.6221 330.4988,463.3523 Q329.9053,463.0825 329.2744,463.0825 Q327.9297,463.0825 327.2449,464.1492 Q326.5601,465.2158 326.5601,467.3159 Q326.5601,469.4077 327.2449,470.4744 Q327.9297,471.541 329.2744,471.541 Q329.9053,471.541 330.4988,471.2712 Q331.0923,471.0015 331.7231,470.4204 Z "/><text fill="#000000" font-family="sans-serif" font-size="12" lengthAdjust="spacingAndGlyphs" textLength="107" x="349.75" y="471.5352">Impl:auth.UseCase</text><line style="stroke: #A80036; stroke-width: 1.5;" x1="285.5" x2="488.5" y1="483" y2="483"/><ellipse cx="295.5" cy="494.9775" fill="none" rx="3" ry="3" style="stroke: #038048; stroke-width: 1.0;"/><text fill="#000000" font-family="sans-serif" font-size="11" lengthAdjust="spacingAndGlyphs" textLength="179" x="304.5" y="497.6348">repositoryImpl: auth.Repository...</text><line style="stroke: #A80036; stroke-width: 1.5;" x1="285.5" x2="488.5" y1="503.9551" y2="503.9551"/><!--class Infra.stateUseCase--><rect fill="#FEFECE" filter="url(#fgzp2tdgg8kj1)" height="60.9551" id="Infra.stateUseCase" style="stroke: #A80036; stroke-width: 1.5;" width="207" x="524.5" y="451"/><ellipse cx="568.75" cy="467" fill="#ADD1B2" rx="11" ry="11" style="stroke: #A80036; stroke-width: 1.0;"/><path d="M571.2231,473.1431 Q570.6421,473.4419 570.0029,473.5913 Q569.3638,473.7407 568.6582,473.7407 Q566.1514,473.7407 564.8315,472.0889 Q563.5117,470.437 563.5117,467.3159 Q563.5117,464.1865 564.8315,462.5347 Q566.1514,460.8828 568.6582,460.8828 Q569.3638,460.8828 570.0112,461.0322 Q570.6587,461.1816 571.2231,461.4805 L571.2231,464.2031 Q570.5923,463.6221 569.9988,463.3523 Q569.4053,463.0825 568.7744,463.0825 Q567.4297,463.0825 566.7449,464.1492 Q566.0601,465.2158 566.0601,467.3159 Q566.0601,469.4077 566.7449,470.4744 Q567.4297,471.541 568.7744,471.541 Q569.4053,471.541 569.9988,471.2712 Q570.5923,471.0015 571.2231,470.4204 Z "/><text fill="#000000" font-family="sans-serif" font-size="12" lengthAdjust="spacingAndGlyphs" textLength="110" x="589.25" y="471.5352">Impl:state.UseCase</text><line style="stroke: #A80036; stroke-width: 1.5;" x1="525.5" x2="730.5" y1="483" y2="483"/><ellipse cx="535.5" cy="494.9775" fill="none" rx="3" ry="3" style="stroke: #038048; stroke-width: 1.0;"/><text fill="#000000" font-family="sans-serif" font-size="11" lengthAdjust="spacingAndGlyphs" textLength="181" x="544.5" y="497.6348">repositoryImpl: state.Repository...</text><line style="stroke: #A80036; stroke-width: 1.5;" x1="525.5" x2="730.5" y1="503.9551" y2="503.9551"/><!--class Service.auth--><rect fill="#FEFECE" filter="url(#fgzp2tdgg8kj1)" height="73.9102" id="Service.auth" style="stroke: #A80036; stroke-width: 1.5;" width="188" x="293" y="603"/><ellipse cx="348.25" cy="619" fill="#ADD1B2" rx="11" ry="11" style="stroke: #A80036; stroke-width: 1.0;"/><path d="M350.7231,625.1431 Q350.1421,625.4419 349.5029,625.5913 Q348.8638,625.7407 348.1582,625.7407 Q345.6514,625.7407 344.3315,624.0889 Q343.0117,622.437 343.0117,619.3159 Q343.0117,616.1865 344.3315,614.5347 Q345.6514,612.8828 348.1582,612.8828 Q348.8638,612.8828 349.5112,613.0322 Q350.1587,613.1816 350.7231,613.4805 L350.7231,616.2031 Q350.0923,615.6221 349.4988,615.3523 Q348.9053,615.0825 348.2744,615.0825 Q346.9297,615.0825 346.2449,616.1492 Q345.5601,617.2158 345.5601,619.3159 Q345.5601,621.4077 346.2449,622.4744 Q346.9297,623.541 348.2744,623.541 Q348.9053,623.541 349.4988,623.2712 Q350.0923,623.0015 350.7231,622.4204 Z "/><text fill="#000000" font-family="sans-serif" font-size="12" lengthAdjust="spacingAndGlyphs" textLength="69" x="368.75" y="623.5352">auth.Service</text><line style="stroke: #A80036; stroke-width: 1.5;" x1="294" x2="480" y1="635" y2="635"/><ellipse cx="304" cy="646.9775" fill="none" rx="3" ry="3" style="stroke: #038048; stroke-width: 1.0;"/><text fill="#000000" font-family="sans-serif" font-size="11" lengthAdjust="spacingAndGlyphs" textLength="158" x="313" y="649.6348">authUseCase: auth.UseCase...</text><ellipse cx="304" cy="659.9326" fill="none" rx="3" ry="3" style="stroke: #038048; stroke-width: 1.0;"/><text fill="#000000" font-family="sans-serif" font-size="11" lengthAdjust="spacingAndGlyphs" textLength="162" x="313" y="662.5898">stateUseCase: state.UseCase...</text><line style="stroke: #A80036; stroke-width: 1.5;" x1="294" x2="480" y1="668.9102" y2="668.9102"/><!--link fw.db to fw.vertx--><!--link auth.Domain.Models to auth.Domain.Repository--><path d="M380,161.44 C380,176.87 380,194.47 380,207.98 " fill="none" id="auth.Domain.Models-auth.Domain.Repository" style="stroke: #A80036; stroke-width: 1.0;"/><polygon fill="#A80036" points="380,148.06,376,154.06,380,160.06,384,154.06,380,148.06" style="stroke: #A80036; stroke-width: 1.0;"/><!--link auth.Domain.Repository to auth.UseCase--><path d="M380.34,267.44 C380.49,282.87 380.66,300.47 380.79,313.98 " fill="none" id="auth.Domain.Repository-auth.UseCase" style="stroke: #A80036; stroke-width: 1.0;"/><polygon fill="#A80036" points="380.21,254.06,376.2695,260.0993,380.3287,266.0594,384.2691,260.0201,380.21,254.06" style="stroke: #A80036; stroke-width: 1.0;"/><!--link state.Domain.Models to state.Domain.Repository--><path d="M633,161.44 C633,176.87 633,194.47 633,207.98 " fill="none" id="state.Domain.Models-state.Domain.Repository" style="stroke: #A80036; stroke-width: 1.0;"/><polygon fill="#A80036" points="633,148.06,629,154.06,633,160.06,637,154.06,633,148.06" style="stroke: #A80036; stroke-width: 1.0;"/><!--link state.Domain.Repository to state.UseCase--><path d="M632.32,267.44 C632.02,282.87 631.68,300.47 631.42,313.98 " fill="none" id="state.Domain.Repository-state.UseCase" style="stroke: #A80036; stroke-width: 1.0;"/><polygon fill="#A80036" points="632.58,254.06,628.4685,259.9842,632.3556,266.0579,636.4671,260.1337,632.58,254.06" style="stroke: #A80036; stroke-width: 1.0;"/><!--link auth.UseCase to Infra.authUseCase--><path d="M382.79,380.59 C383.75,403.29 384.9,430.63 385.76,450.97 " fill="none" id="auth.UseCase-Infra.authUseCase" style="stroke: #A80036; stroke-width: 1.0;"/><polygon fill="none" points="375.79,380.54,381.94,360.27,389.77,379.95,375.79,380.54" style="stroke: #A80036; stroke-width: 1.0;"/><!--link state.UseCase to Infra.stateUseCase--><path d="M630.1,380.59 C629.63,403.29 629.05,430.63 628.62,450.97 " fill="none" id="state.UseCase-Infra.stateUseCase" style="stroke: #A80036; stroke-width: 1.0;"/><polygon fill="none" points="623.11,380.11,630.53,360.27,637.11,380.41,623.11,380.11" style="stroke: #A80036; stroke-width: 1.0;"/><!--link fw.db to Infra--><path d="M207.28,481.5 C213.47,481.5 218.67,481.5 218.67,481.5 C218.67,481.5 224.8975,481.5 231.7088,481.5 C233.4116,481.5 235.1509,481.5 236.8385,481.5 C237.6823,481.5 238.5131,481.5 239.3201,481.5 C239.7235,481.5 240.121,481.5 240.5111,481.5 C240.6086,481.5 240.7057,481.5 240.8023,481.5 C240.8506,481.5 240.8988,481.5 240.9468,481.5 " fill="none" id="fw.db-Infra" style="stroke: #A80036; stroke-width: 1.0;"/><polygon fill="none" points="207.03,488.5,187.03,481.5,207.03,474.5,207.03,488.5" style="stroke: #A80036; stroke-width: 1.0;"/><!--link Infra.authUseCase to Service.auth--><path d="M387,525.51 C387,549.84 387,579.91 387,602.99 " fill="none" id="Infra.authUseCase-Service.auth" style="stroke: #A80036; stroke-width: 1.0;"/><polygon fill="#A80036" points="387,512.3,383,518.3,387,524.3,391,518.3,387,512.3" style="stroke: #A80036; stroke-width: 1.0;"/><!--link Infra.stateUseCase to Service.auth--><path d="M571.27,519.34 C532.43,544.56 481.18,577.84 442.59,602.9 " fill="none" id="Infra.stateUseCase-Service.auth" style="stroke: #A80036; stroke-width: 1.0;"/><polygon fill="#A80036" points="582.39,512.12,575.1795,512.0255,572.3191,518.645,579.5295,518.7395,582.39,512.12" style="stroke: #A80036; stroke-width: 1.0;"/><!--link fw.vertx to Service.auth--><path d="M213.01,640 C223.43,640 231,640 231,640 C231,640 269.99,640 292.84,640 " fill="none" id="fw.vertx-Service.auth" style="stroke: #A80036; stroke-width: 1.0;"/><polygon fill="none" points="212.91,647,192.91,640,212.91,633,212.91,647" style="stroke: #A80036; stroke-width: 1.0;"/></g></svg>