<?xml version="1.0" encoding="UTF-8" standalone="no"?><svg xmlns="http://www.w3.org/2000/svg" xmlns:xlink="http://www.w3.org/1999/xlink" contentScriptType="application/ecmascript" contentStyleType="text/css" height="717px" preserveAspectRatio="none" style="width:989px;height:717px;" version="1.1" viewBox="0 0 989 717" width="989px" zoomAndPan="magnify"><defs><filter height="300%" id="fal7u5kh8798n" width="300%" x="-1" y="-1"><feGaussianBlur result="blurOut" stdDeviation="2.0"/><feColorMatrix in="blurOut" result="blurOut2" type="matrix" values="0 0 0 0 0 0 0 0 0 0 0 0 0 0 0 0 0 0 .4 0"/><feOffset dx="4.0" dy="4.0" in="blurOut2" result="blurOut3"/><feBlend in="SourceGraphic" in2="blurOut3" mode="normal"/></filter></defs><g><!--cluster fw--><rect fill="#FFFFFF" filter="url(#fal7u5kh8798n)" height="255.5" style="stroke: #000000; stroke-width: 1.5;" width="253" x="104" y="436.5"/><line style="stroke: #000000; stroke-width: 1.5;" x1="104" x2="357" y1="456.9883" y2="456.9883"/><text fill="#000000" font-family="sans-serif" font-size="14" font-weight="bold" lengthAdjust="spacingAndGlyphs" textLength="171" x="145" y="452.0352">Framework/Middleware</text><!--cluster ext--><rect fill="#FFFFFF" filter="url(#fal7u5kh8798n)" height="258.5" style="stroke: #000000; stroke-width: 1.5;" width="371" x="22" y="24.5"/><line style="stroke: #000000; stroke-width: 1.5;" x1="22" x2="393" y1="44.9883" y2="44.9883"/><text fill="#000000" font-family="sans-serif" font-size="14" font-weight="bold" lengthAdjust="spacingAndGlyphs" textLength="22" x="196.5" y="40.0352">ext</text><!--cluster pub--><rect fill="#FFFFFF" filter="url(#fal7u5kh8798n)" height="97" style="stroke: #000000; stroke-width: 1.5;" width="162" x="207" y="67.5"/><line style="stroke: #000000; stroke-width: 1.5;" x1="207" x2="369" y1="87.9883" y2="87.9883"/><text fill="#000000" font-family="sans-serif" font-size="14" font-weight="bold" lengthAdjust="spacingAndGlyphs" textLength="71" x="252.5" y="83.0352">data-type</text><!--cluster auth--><rect fill="#FFFFFF" filter="url(#fal7u5kh8798n)" height="364.5" style="stroke: #000000; stroke-width: 1.5;" width="228" x="417" y="24.5"/><line style="stroke: #000000; stroke-width: 1.5;" x1="417" x2="645" y1="44.9883" y2="44.9883"/><text fill="#000000" font-family="sans-serif" font-size="14" font-weight="bold" lengthAdjust="spacingAndGlyphs" textLength="32" x="515" y="40.0352">auth</text><!--cluster auth.Domain--><rect fill="#FFFFFF" filter="url(#fal7u5kh8798n)" height="215.5" style="stroke: #000000; stroke-width: 1.5;" width="180" x="441" y="67.5"/><rect fill="#FFFFFF" height="10" style="stroke: #000000; stroke-width: 1.5;" width="15" x="601" y="72.5"/><rect fill="#FFFFFF" height="2" style="stroke: #000000; stroke-width: 1.5;" width="4" x="599" y="74.5"/><rect fill="#FFFFFF" height="2" style="stroke: #000000; stroke-width: 1.5;" width="4" x="599" y="78.5"/><text fill="#000000" font-family="sans-serif" font-size="14" font-weight="bold" lengthAdjust="spacingAndGlyphs" textLength="91" x="485.5" y="94.0352">auth.Domain</text><!--cluster state--><rect fill="#FFFFFF" filter="url(#fal7u5kh8798n)" height="364.5" style="stroke: #000000; stroke-width: 1.5;" width="230" x="669" y="24.5"/><line style="stroke: #000000; stroke-width: 1.5;" x1="669" x2="899" y1="44.9883" y2="44.9883"/><text fill="#000000" font-family="sans-serif" font-size="14" font-weight="bold" lengthAdjust="spacingAndGlyphs" textLength="36" x="766" y="40.0352">state</text><!--cluster state.Domain--><rect fill="#FFFFFF" filter="url(#fal7u5kh8798n)" height="215.5" style="stroke: #000000; stroke-width: 1.5;" width="182" x="693" y="67.5"/><rect fill="#FFFFFF" height="10" style="stroke: #000000; stroke-width: 1.5;" width="15" x="855" y="72.5"/><rect fill="#FFFFFF" height="2" style="stroke: #000000; stroke-width: 1.5;" width="4" x="853" y="74.5"/><rect fill="#FFFFFF" height="2" style="stroke: #000000; stroke-width: 1.5;" width="4" x="853" y="78.5"/><text fill="#000000" font-family="sans-serif" font-size="14" font-weight="bold" lengthAdjust="spacingAndGlyphs" textLength="95" x="736.5" y="94.0352">state.Domain</text><!--cluster Infra--><rect fill="#FFFFFF" filter="url(#fal7u5kh8798n)" height="128" style="stroke: #000000; stroke-width: 1.5;" width="515" x="389" y="421"/><line style="stroke: #000000; stroke-width: 1.5;" x1="389" x2="904" y1="441.4883" y2="441.4883"/><text fill="#000000" font-family="sans-serif" font-size="14" font-weight="bold" lengthAdjust="spacingAndGlyphs" textLength="34" x="629.5" y="436.5352">Infra</text><!--cluster Service--><rect fill="#FFFFFF" filter="url(#fal7u5kh8798n)" height="125" style="stroke: #000000; stroke-width: 1.5;" width="574" x="403" y="581"/><line style="stroke: #000000; stroke-width: 1.5;" x1="403" x2="977" y1="601.4883" y2="601.4883"/><text fill="#000000" font-family="sans-serif" font-size="14" font-weight="bold" lengthAdjust="spacingAndGlyphs" textLength="50" x="665" y="596.5352">Service</text><!--entity fw.vertx--><rect fill="#FFFFFF" filter="url(#fal7u5kh8798n)" height="46.4883" style="stroke: #A80036; stroke-width: 1.5;" width="79" x="120.5" y="630"/><rect fill="#FFFFFF" height="10" style="stroke: #A80036; stroke-width: 1.5;" width="15" x="179.5" y="635"/><rect fill="#FFFFFF" height="2" style="stroke: #A80036; stroke-width: 1.5;" width="4" x="177.5" y="637"/><rect fill="#FFFFFF" height="2" style="stroke: #A80036; stroke-width: 1.5;" width="4" x="177.5" y="641"/><text fill="#000000" font-family="sans-serif" font-size="14" lengthAdjust="spacingAndGlyphs" textLength="39" x="135.5" y="663.5352">vert.x</text><!--entity fw.appBase--><rect fill="#FFFFFF" filter="url(#fal7u5kh8798n)" height="46.4883" style="stroke: #A80036; stroke-width: 1.5;" width="106" x="235" y="630"/><rect fill="#FFFFFF" height="10" style="stroke: #A80036; stroke-width: 1.5;" width="15" x="321" y="635"/><rect fill="#FFFFFF" height="2" style="stroke: #A80036; stroke-width: 1.5;" width="4" x="319" y="637"/><rect fill="#FFFFFF" height="2" style="stroke: #A80036; stroke-width: 1.5;" width="4" x="319" y="641"/><text fill="#000000" font-family="sans-serif" font-size="14" lengthAdjust="spacingAndGlyphs" textLength="66" x="250" y="663.5352">app-base</text><!--entity fw.db--><rect fill="#FFFFFF" filter="url(#fal7u5kh8798n)" height="46.4883" style="stroke: #A80036; stroke-width: 1.5;" width="58" x="271" y="471.5"/><rect fill="#FFFFFF" height="10" style="stroke: #A80036; stroke-width: 1.5;" width="15" x="309" y="476.5"/><rect fill="#FFFFFF" height="2" style="stroke: #A80036; stroke-width: 1.5;" width="4" x="307" y="478.5"/><rect fill="#FFFFFF" height="2" style="stroke: #A80036; stroke-width: 1.5;" width="4" x="307" y="482.5"/><text fill="#000000" font-family="sans-serif" font-size="14" lengthAdjust="spacingAndGlyphs" textLength="18" x="286" y="505.0352">DB</text><path d="M38,90 L38,161.2422 L188,161.2422 L188,100 L178,90 L38,90 " fill="#FBFB77" filter="url(#fal7u5kh8798n)" style="stroke: #A80036; stroke-width: 1.0;"/><path d="M178,90 L178,100 L188,100 L178,90 " fill="#FBFB77" style="stroke: #A80036; stroke-width: 1.0;"/><text fill="#000000" font-family="sans-serif" font-size="13" lengthAdjust="spacingAndGlyphs" textLength="125" x="44" y="107.5684">[一般的なデータ形式]</text><text fill="#000000" font-family="sans-serif" font-size="13" lengthAdjust="spacingAndGlyphs" textLength="114" x="44" y="122.8789">Domainを横断して</text><text fill="#000000" font-family="sans-serif" font-size="13" lengthAdjust="spacingAndGlyphs" textLength="126" x="44" y="138.1895">Domain/Service層の</text><text fill="#000000" font-family="sans-serif" font-size="13" lengthAdjust="spacingAndGlyphs" textLength="129" x="44" y="153.5">Modelに参照されうる</text><!--entity pub.models--><rect fill="#FFFFFF" filter="url(#fal7u5kh8798n)" height="46.4883" style="stroke: #A80036; stroke-width: 1.5;" width="130" x="223" y="102.5"/><rect fill="#FFFFFF" height="10" style="stroke: #A80036; stroke-width: 1.5;" width="15" x="333" y="107.5"/><rect fill="#FFFFFF" height="2" style="stroke: #A80036; stroke-width: 1.5;" width="4" x="331" y="109.5"/><rect fill="#FFFFFF" height="2" style="stroke: #A80036; stroke-width: 1.5;" width="4" x="331" y="113.5"/><text fill="#000000" font-family="sans-serif" font-size="14" lengthAdjust="spacingAndGlyphs" textLength="90" x="238" y="136.0352">PublicModels</text><!--entity domain.Models--><rect fill="#FFFFFF" filter="url(#fal7u5kh8798n)" height="46.4883" style="stroke: #A80036; stroke-width: 1.5;" width="146" x="46" y="221"/><rect fill="#FFFFFF" height="10" style="stroke: #A80036; stroke-width: 1.5;" width="15" x="172" y="226"/><rect fill="#FFFFFF" height="2" style="stroke: #A80036; stroke-width: 1.5;" width="4" x="170" y="228"/><rect fill="#FFFFFF" height="2" style="stroke: #A80036; stroke-width: 1.5;" width="4" x="170" y="232"/><text fill="#000000" font-family="sans-serif" font-size="14" lengthAdjust="spacingAndGlyphs" textLength="106" x="61" y="254.5352">Domain.Models</text><!--entity service.Models--><rect fill="#FFFFFF" filter="url(#fal7u5kh8798n)" height="46.4883" style="stroke: #A80036; stroke-width: 1.5;" width="141" x="227.5" y="221"/><rect fill="#FFFFFF" height="10" style="stroke: #A80036; stroke-width: 1.5;" width="15" x="348.5" y="226"/><rect fill="#FFFFFF" height="2" style="stroke: #A80036; stroke-width: 1.5;" width="4" x="346.5" y="228"/><rect fill="#FFFFFF" height="2" style="stroke: #A80036; stroke-width: 1.5;" width="4" x="346.5" y="232"/><text fill="#000000" font-family="sans-serif" font-size="14" lengthAdjust="spacingAndGlyphs" textLength="101" x="242.5" y="254.5352">Service.Models</text><!--entity auth.Domain.Models--><rect fill="#FFFFFF" filter="url(#fal7u5kh8798n)" height="46.4883" style="stroke: #A80036; stroke-width: 1.5;" width="124" x="469" y="102.5"/><rect fill="#FFFFFF" height="10" style="stroke: #A80036; stroke-width: 1.5;" width="15" x="573" y="107.5"/><rect fill="#FFFFFF" height="2" style="stroke: #A80036; stroke-width: 1.5;" width="4" x="571" y="109.5"/><rect fill="#FFFFFF" height="2" style="stroke: #A80036; stroke-width: 1.5;" width="4" x="571" y="113.5"/><text fill="#000000" font-family="sans-serif" font-size="14" lengthAdjust="spacingAndGlyphs" textLength="84" x="484" y="136.0352">auth.Models</text><!--entity auth.Domain.Repository--><rect fill="#FFFFFF" filter="url(#fal7u5kh8798n)" height="46.4883" style="stroke: #A80036; stroke-width: 1.5;" width="148" x="457" y="221"/><rect fill="#FFFFFF" height="10" style="stroke: #A80036; stroke-width: 1.5;" width="15" x="585" y="226"/><rect fill="#FFFFFF" height="2" style="stroke: #A80036; stroke-width: 1.5;" width="4" x="583" y="228"/><rect fill="#FFFFFF" height="2" style="stroke: #A80036; stroke-width: 1.5;" width="4" x="583" y="232"/><text fill="#000000" font-family="sans-serif" font-size="14" lengthAdjust="spacingAndGlyphs" textLength="108" x="472" y="254.5352">auth.Repository</text><!--entity auth.UseCase--><rect fill="#FFFFFF" filter="url(#fal7u5kh8798n)" height="46.4883" style="stroke: #A80036; stroke-width: 1.5;" width="133" x="467.5" y="327"/><rect fill="#FFFFFF" height="10" style="stroke: #A80036; stroke-width: 1.5;" width="15" x="580.5" y="332"/><rect fill="#FFFFFF" height="2" style="stroke: #A80036; stroke-width: 1.5;" width="4" x="578.5" y="334"/><rect fill="#FFFFFF" height="2" style="stroke: #A80036; stroke-width: 1.5;" width="4" x="578.5" y="338"/><text fill="#000000" font-family="sans-serif" font-size="14" lengthAdjust="spacingAndGlyphs" textLength="93" x="482.5" y="360.5352">auth.UseCase</text><!--entity state.Domain.Models--><rect fill="#FFFFFF" filter="url(#fal7u5kh8798n)" height="46.4883" style="stroke: #A80036; stroke-width: 1.5;" width="126" x="721" y="102.5"/><rect fill="#FFFFFF" height="10" style="stroke: #A80036; stroke-width: 1.5;" width="15" x="827" y="107.5"/><rect fill="#FFFFFF" height="2" style="stroke: #A80036; stroke-width: 1.5;" width="4" x="825" y="109.5"/><rect fill="#FFFFFF" height="2" style="stroke: #A80036; stroke-width: 1.5;" width="4" x="825" y="113.5"/><text fill="#000000" font-family="sans-serif" font-size="14" lengthAdjust="spacingAndGlyphs" textLength="86" x="736" y="136.0352">state.Models</text><!--entity state.Domain.Repository--><rect fill="#FFFFFF" filter="url(#fal7u5kh8798n)" height="46.4883" style="stroke: #A80036; stroke-width: 1.5;" width="150" x="709" y="221"/><rect fill="#FFFFFF" height="10" style="stroke: #A80036; stroke-width: 1.5;" width="15" x="839" y="226"/><rect fill="#FFFFFF" height="2" style="stroke: #A80036; stroke-width: 1.5;" width="4" x="837" y="228"/><rect fill="#FFFFFF" height="2" style="stroke: #A80036; stroke-width: 1.5;" width="4" x="837" y="232"/><text fill="#000000" font-family="sans-serif" font-size="14" lengthAdjust="spacingAndGlyphs" textLength="110" x="724" y="254.5352">state.Repository</text><!--entity state.UseCase--><rect fill="#FFFFFF" filter="url(#fal7u5kh8798n)" height="46.4883" style="stroke: #A80036; stroke-width: 1.5;" width="135" x="714.5" y="327"/><rect fill="#FFFFFF" height="10" style="stroke: #A80036; stroke-width: 1.5;" width="15" x="829.5" y="332"/><rect fill="#FFFFFF" height="2" style="stroke: #A80036; stroke-width: 1.5;" width="4" x="827.5" y="334"/><rect fill="#FFFFFF" height="2" style="stroke: #A80036; stroke-width: 1.5;" width="4" x="827.5" y="338"/><text fill="#000000" font-family="sans-serif" font-size="14" lengthAdjust="spacingAndGlyphs" textLength="95" x="729.5" y="360.5352">state.UseCase</text><!--class Infra.authUseCase--><rect fill="#FEFECE" filter="url(#fal7u5kh8798n)" height="60.9551" id="Infra.authUseCase" style="stroke: #A80036; stroke-width: 1.5;" width="205" x="432.5" y="464"/><ellipse cx="477.25" cy="480" fill="#ADD1B2" rx="11" ry="11" style="stroke: #A80036; stroke-width: 1.0;"/><path d="M479.7231,486.1431 Q479.1421,486.4419 478.5029,486.5913 Q477.8638,486.7407 477.1582,486.7407 Q474.6514,486.7407 473.3315,485.0889 Q472.0117,483.437 472.0117,480.3159 Q472.0117,477.1865 473.3315,475.5347 Q474.6514,473.8828 477.1582,473.8828 Q477.8638,473.8828 478.5112,474.0322 Q479.1587,474.1816 479.7231,474.4805 L479.7231,477.2031 Q479.0923,476.6221 478.4988,476.3523 Q477.9053,476.0825 477.2744,476.0825 Q475.9297,476.0825 475.2449,477.1492 Q474.5601,478.2158 474.5601,480.3159 Q474.5601,482.4077 475.2449,483.4744 Q475.9297,484.541 477.2744,484.541 Q477.9053,484.541 478.4988,484.2712 Q479.0923,484.0015 479.7231,483.4204 Z "/><text fill="#000000" font-family="sans-serif" font-size="12" lengthAdjust="spacingAndGlyphs" textLength="107" x="497.75" y="484.5352">Impl:auth.UseCase</text><line style="stroke: #A80036; stroke-width: 1.5;" x1="433.5" x2="636.5" y1="496" y2="496"/><ellipse cx="443.5" cy="507.9775" fill="none" rx="3" ry="3" style="stroke: #038048; stroke-width: 1.0;"/><text fill="#000000" font-family="sans-serif" font-size="11" lengthAdjust="spacingAndGlyphs" textLength="179" x="452.5" y="510.6348">repositoryImpl: auth.Repository...</text><line style="stroke: #A80036; stroke-width: 1.5;" x1="433.5" x2="636.5" y1="516.9551" y2="516.9551"/><!--class Infra.stateUseCase--><rect fill="#FEFECE" filter="url(#fal7u5kh8798n)" height="60.9551" id="Infra.stateUseCase" style="stroke: #A80036; stroke-width: 1.5;" width="207" x="672.5" y="464"/><ellipse cx="716.75" cy="480" fill="#ADD1B2" rx="11" ry="11" style="stroke: #A80036; stroke-width: 1.0;"/><path d="M719.2231,486.1431 Q718.6421,486.4419 718.0029,486.5913 Q717.3638,486.7407 716.6582,486.7407 Q714.1514,486.7407 712.8315,485.0889 Q711.5117,483.437 711.5117,480.3159 Q711.5117,477.1865 712.8315,475.5347 Q714.1514,473.8828 716.6582,473.8828 Q717.3638,473.8828 718.0112,474.0322 Q718.6587,474.1816 719.2231,474.4805 L719.2231,477.2031 Q718.5923,476.6221 717.9988,476.3523 Q717.4053,476.0825 716.7744,476.0825 Q715.4297,476.0825 714.7449,477.1492 Q714.0601,478.2158 714.0601,480.3159 Q714.0601,482.4077 714.7449,483.4744 Q715.4297,484.541 716.7744,484.541 Q717.4053,484.541 717.9988,484.2712 Q718.5923,484.0015 719.2231,483.4204 Z "/><text fill="#000000" font-family="sans-serif" font-size="12" lengthAdjust="spacingAndGlyphs" textLength="110" x="737.25" y="484.5352">Impl:state.UseCase</text><line style="stroke: #A80036; stroke-width: 1.5;" x1="673.5" x2="878.5" y1="496" y2="496"/><ellipse cx="683.5" cy="507.9775" fill="none" rx="3" ry="3" style="stroke: #038048; stroke-width: 1.0;"/><text fill="#000000" font-family="sans-serif" font-size="11" lengthAdjust="spacingAndGlyphs" textLength="181" x="692.5" y="510.6348">repositoryImpl: state.Repository...</text><line style="stroke: #A80036; stroke-width: 1.5;" x1="673.5" x2="878.5" y1="516.9551" y2="516.9551"/><!--class Service.auth--><rect fill="#FEFECE" filter="url(#fal7u5kh8798n)" height="73.9102" id="Service.auth" style="stroke: #A80036; stroke-width: 1.5;" width="188" x="419" y="616"/><ellipse cx="474.25" cy="632" fill="#ADD1B2" rx="11" ry="11" style="stroke: #A80036; stroke-width: 1.0;"/><path d="M476.7231,638.1431 Q476.1421,638.4419 475.5029,638.5913 Q474.8638,638.7407 474.1582,638.7407 Q471.6514,638.7407 470.3315,637.0889 Q469.0117,635.437 469.0117,632.3159 Q469.0117,629.1865 470.3315,627.5347 Q471.6514,625.8828 474.1582,625.8828 Q474.8638,625.8828 475.5112,626.0322 Q476.1587,626.1816 476.7231,626.4805 L476.7231,629.2031 Q476.0923,628.6221 475.4988,628.3523 Q474.9053,628.0825 474.2744,628.0825 Q472.9297,628.0825 472.2449,629.1492 Q471.5601,630.2158 471.5601,632.3159 Q471.5601,634.4077 472.2449,635.4744 Q472.9297,636.541 474.2744,636.541 Q474.9053,636.541 475.4988,636.2712 Q476.0923,636.0015 476.7231,635.4204 Z "/><text fill="#000000" font-family="sans-serif" font-size="12" lengthAdjust="spacingAndGlyphs" textLength="69" x="494.75" y="636.5352">auth.Service</text><line style="stroke: #A80036; stroke-width: 1.5;" x1="420" x2="606" y1="648" y2="648"/><ellipse cx="430" cy="659.9775" fill="none" rx="3" ry="3" style="stroke: #038048; stroke-width: 1.0;"/><text fill="#000000" font-family="sans-serif" font-size="11" lengthAdjust="spacingAndGlyphs" textLength="158" x="439" y="662.6348">authUseCase: auth.UseCase...</text><ellipse cx="430" cy="672.9326" fill="none" rx="3" ry="3" style="stroke: #038048; stroke-width: 1.0;"/><text fill="#000000" font-family="sans-serif" font-size="11" lengthAdjust="spacingAndGlyphs" textLength="162" x="439" y="675.5898">stateUseCase: state.UseCase...</text><line style="stroke: #A80036; stroke-width: 1.5;" x1="420" x2="606" y1="681.9102" y2="681.9102"/><path d="M801.5,625 L801.5,680.9316 L960.5,680.9316 L960.5,635 L950.5,625 L801.5,625 " fill="#FBFB77" filter="url(#fal7u5kh8798n)" style="stroke: #A80036; stroke-width: 1.0;"/><path d="M950.5,625 L950.5,635 L960.5,635 L950.5,625 " fill="#FBFB77" style="stroke: #A80036; stroke-width: 1.0;"/><text fill="#000000" font-family="sans-serif" font-size="13" lengthAdjust="spacingAndGlyphs" textLength="138" x="807.5" y="642.5684">[サービス入出力モデル]</text><text fill="#000000" font-family="sans-serif" font-size="13" lengthAdjust="spacingAndGlyphs" textLength="104" x="807.5" y="657.8789">入出力に対応する</text><text fill="#000000" font-family="sans-serif" font-size="13" lengthAdjust="spacingAndGlyphs" textLength="78" x="807.5" y="673.1895">データモデル</text><!--entity Service.authModels--><rect fill="#FFFFFF" filter="url(#fal7u5kh8798n)" height="46.4883" style="stroke: #A80036; stroke-width: 1.5;" width="124" x="642" y="630"/><rect fill="#FFFFFF" height="10" style="stroke: #A80036; stroke-width: 1.5;" width="15" x="746" y="635"/><rect fill="#FFFFFF" height="2" style="stroke: #A80036; stroke-width: 1.5;" width="4" x="744" y="637"/><rect fill="#FFFFFF" height="2" style="stroke: #A80036; stroke-width: 1.5;" width="4" x="744" y="641"/><text fill="#000000" font-family="sans-serif" font-size="14" lengthAdjust="spacingAndGlyphs" textLength="84" x="657" y="663.5352">auth.Models</text><!--link fw.db to fw.appBase--><!--link fw.vertx to fw.appBase--><path d="M199.6,653 C201.52,653 202.67,653 202.67,653 C202.67,653 207.79,653 214.48,653 " fill="none" id="fw.vertx-fw.appBase" style="stroke: #A80036; stroke-width: 1.0;"/><polygon fill="none" points="214.57,646,234.57,653,214.57,660,214.57,646" style="stroke: #A80036; stroke-width: 1.0;"/><!--link GMN274 to pub.models--><path d="M188.21,125.5 C199.78,125.5 214.52,125.5 222.94,125.5 " fill="none" id="GMN274-pub.models" style="stroke: #A80036; stroke-width: 1.0; stroke-dasharray: 7.0,7.0;"/><!--link pub.models to domain.Models--><path d="M245.08,156.09 C215.82,176.26 177.7,202.54 151.07,220.9 " fill="none" id="pub.models-domain.Models" style="stroke: #A80036; stroke-width: 1.0;"/><polygon fill="#A80036" points="255.81,148.69,248.5997,148.7999,245.928,155.4979,253.1383,155.3879,255.81,148.69" style="stroke: #A80036; stroke-width: 1.0;"/><!--link pub.models to service.Models--><path d="M291.03,161.83 C292.68,181.05 294.67,204.24 296.1,220.9 " fill="none" id="pub.models-service.Models" style="stroke: #A80036; stroke-width: 1.0;"/><polygon fill="#A80036" points="289.9,148.69,286.4288,155.0107,290.9282,160.6459,294.3994,154.3252,289.9,148.69" style="stroke: #A80036; stroke-width: 1.0;"/><!--link auth.Domain.Models to auth.Domain.Repository--><path d="M531,161.83 C531,181.05 531,204.24 531,220.9 " fill="none" id="auth.Domain.Models-auth.Domain.Repository" style="stroke: #A80036; stroke-width: 1.0;"/><polygon fill="#A80036" points="531,148.69,527,154.69,531,160.69,535,154.69,531,148.69" style="stroke: #A80036; stroke-width: 1.0;"/><!--link auth.Domain.Repository to auth.UseCase--><path d="M532.02,280.44 C532.47,295.87 532.98,313.47 533.36,326.98 " fill="none" id="auth.Domain.Repository-auth.UseCase" style="stroke: #A80036; stroke-width: 1.0;"/><polygon fill="#A80036" points="531.64,267.06,527.813,273.1718,531.9827,279.0551,535.8097,272.9433,531.64,267.06" style="stroke: #A80036; stroke-width: 1.0;"/><!--link state.Domain.Models to state.Domain.Repository--><path d="M784,161.83 C784,181.05 784,204.24 784,220.9 " fill="none" id="state.Domain.Models-state.Domain.Repository" style="stroke: #A80036; stroke-width: 1.0;"/><polygon fill="#A80036" points="784,148.69,780,154.69,784,160.69,788,154.69,784,148.69" style="stroke: #A80036; stroke-width: 1.0;"/><!--link state.Domain.Repository to state.UseCase--><path d="M783.32,280.44 C783.02,295.87 782.68,313.47 782.42,326.98 " fill="none" id="state.Domain.Repository-state.UseCase" style="stroke: #A80036; stroke-width: 1.0;"/><polygon fill="#A80036" points="783.58,267.06,779.4685,272.9842,783.3556,279.0579,787.4671,273.1337,783.58,267.06" style="stroke: #A80036; stroke-width: 1.0;"/><!--link auth.UseCase to Infra.authUseCase--><path d="M534.3,393.59 C534.46,416.29 534.65,443.63 534.79,463.97 " fill="none" id="auth.UseCase-Infra.authUseCase" style="stroke: #A80036; stroke-width: 1.0;"/><polygon fill="none" points="527.3,393.31,534.16,373.27,541.3,393.22,527.3,393.31" style="stroke: #A80036; stroke-width: 1.0;"/><!--link state.UseCase to Infra.stateUseCase--><path d="M780.21,393.59 C779.25,416.29 778.1,443.63 777.24,463.97 " fill="none" id="state.UseCase-Infra.stateUseCase" style="stroke: #A80036; stroke-width: 1.0;"/><polygon fill="none" points="773.23,392.95,781.06,373.27,787.21,393.54,773.23,392.95" style="stroke: #A80036; stroke-width: 1.0;"/><!--link fw.db to Infra--><path d="M349.29,494.5 C357.32,494.5 364.67,494.5 364.67,494.5 C364.67,494.5 371.7725,494.5 379.32,494.5 C381.2069,494.5 383.1216,494.5 384.96,494.5 C385.8793,494.5 386.7795,494.5 387.6476,494.5 C388.0817,494.5 388.5077,494.5 388.9241,494.5 " fill="none" id="fw.db-Infra" style="stroke: #A80036; stroke-width: 1.0;"/><polygon fill="none" points="349.11,501.5,329.11,494.5,349.11,487.5,349.11,501.5" style="stroke: #A80036; stroke-width: 1.0;"/><!--link Service.authModels to GMN304--><path d="M766.17,653 C772.73,653 788.26,653 801.28,653 " fill="none" id="Service.authModels-GMN304" style="stroke: #A80036; stroke-width: 1.0; stroke-dasharray: 7.0,7.0;"/><!--link Infra.authUseCase to Service.auth--><path d="M528.95,538.51 C525.53,562.84 521.31,592.91 518.06,615.99 " fill="none" id="Infra.authUseCase-Service.auth" style="stroke: #A80036; stroke-width: 1.0;"/><polygon fill="#A80036" points="530.81,525.3,526.0125,530.6837,529.1369,537.1828,533.9344,531.7991,530.81,525.3" style="stroke: #A80036; stroke-width: 1.0;"/><!--link Infra.stateUseCase to Service.auth--><path d="M712.69,531.86 C683.41,548.68 655,565 655,565 C655,565 625,573 625,573 C625,573 593.62,595.13 564.08,615.97 " fill="none" id="Infra.stateUseCase-Service.auth" style="stroke: #A80036; stroke-width: 1.0;"/><polygon fill="#A80036" points="724.33,525.18,717.135,524.6986,713.9233,531.155,721.1183,531.6364,724.33,525.18" style="stroke: #A80036; stroke-width: 1.0;"/><!--link fw.appBase to Service.auth--><path d="M360.43,675.21 C362.07,675.72 363,676 363,676 C363,676 396.46,676 418.69,676 " fill="none" id="fw.appBase-Service.auth" style="stroke: #A80036; stroke-width: 1.0;"/><polygon fill="none" points="358.38,681.9,341.31,669.35,362.48,668.52,358.38,681.9" style="stroke: #A80036; stroke-width: 1.0;"/><!--link Service.auth to Service.authModels--><path d="M607.01,653 C614.69,653 622.5,653 628.78,653 " fill="none" id="Service.auth-Service.authModels" style="stroke: #A80036; stroke-width: 1.0;"/><polygon fill="#A80036" points="641.91,653,635.91,649,629.91,653,635.91,657,641.91,653" style="stroke: #A80036; stroke-width: 1.0;"/></g></svg>