<?xml version="1.0" encoding="UTF-8" standalone="no"?><svg xmlns="http://www.w3.org/2000/svg" xmlns:xlink="http://www.w3.org/1999/xlink" contentScriptType="application/ecmascript" contentStyleType="text/css" height="1181px" preserveAspectRatio="none" style="width:1499px;height:1181px;" version="1.1" viewBox="0 0 1499 1181" width="1499px" zoomAndPan="magnify"><defs><filter height="300%" id="f6pdo735rv1w7" width="300%" x="-1" y="-1"><feGaussianBlur result="blurOut" stdDeviation="2.0"/><feColorMatrix in="blurOut" result="blurOut2" type="matrix" values="0 0 0 0 0 0 0 0 0 0 0 0 0 0 0 0 0 0 .4 0"/><feOffset dx="4.0" dy="4.0" in="blurOut2" result="blurOut3"/><feBlend in="SourceGraphic" in2="blurOut3" mode="normal"/></filter></defs><g><!--cluster auth.Domain--><rect fill="#FFFFFF" filter="url(#f6pdo735rv1w7)" height="1022" style="stroke: #000000; stroke-width: 1.5;" width="1119" x="368" y="24"/><line style="stroke: #000000; stroke-width: 1.5;" x1="368" x2="1487" y1="44.4883" y2="44.4883"/><text fill="#000000" font-family="sans-serif" font-size="14" font-weight="bold" lengthAdjust="spacingAndGlyphs" textLength="56" x="899.5" y="39.5352">Domain</text><!--cluster auth.Domain.CQ--><rect fill="#FFFFFF" filter="url(#f6pdo735rv1w7)" height="396" style="stroke: #000000; stroke-width: 1.5;" width="714" x="420" y="204"/><line style="stroke: #000000; stroke-width: 1.5;" x1="420" x2="1134" y1="224.4883" y2="224.4883"/><text fill="#000000" font-family="sans-serif" font-size="14" font-weight="bold" lengthAdjust="spacingAndGlyphs" textLength="152" x="701" y="219.5352">Command and Query</text><!--cluster auth.Domain.CQ.api.email--><polygon fill="#FFFFFF" filter="url(#f6pdo735rv1w7)" points="444,247,515,247,522,269.4883,1110,269.4883,1110,576,444,576,444,247" style="stroke: #000000; stroke-width: 1.5;"/><line style="stroke: #000000; stroke-width: 1.5;" x1="444" x2="522" y1="269.4883" y2="269.4883"/><text fill="#000000" font-family="sans-serif" font-size="14" font-weight="bold" lengthAdjust="spacingAndGlyphs" textLength="65" x="448" y="262.5352">api.email</text><!--cluster auth.Domain.CQ.api.email.command--><polygon fill="#FFFFFF" filter="url(#f6pdo735rv1w7)" points="918.5,439,994.5,439,1001.5,461.4883,1084.5,461.4883,1084.5,552,918.5,552,918.5,439" style="stroke: #000000; stroke-width: 1.5;"/><line style="stroke: #000000; stroke-width: 1.5;" x1="918.5" x2="1001.5" y1="461.4883" y2="461.4883"/><text fill="#000000" font-family="sans-serif" font-size="14" font-weight="bold" lengthAdjust="spacingAndGlyphs" textLength="70" x="922.5" y="454.5352">command</text><!--cluster auth.Domain.CQ.api.email.query--><polygon fill="#FFFFFF" filter="url(#f6pdo735rv1w7)" points="917,290,963,290,970,312.4883,1086,312.4883,1086,415,917,415,917,290" style="stroke: #000000; stroke-width: 1.5;"/><line style="stroke: #000000; stroke-width: 1.5;" x1="917" x2="970" y1="312.4883" y2="312.4883"/><text fill="#000000" font-family="sans-serif" font-size="14" font-weight="bold" lengthAdjust="spacingAndGlyphs" textLength="40" x="921" y="305.5352">query</text><!--cluster auth.Domain.Repository--><rect fill="#FFFFFF" filter="url(#f6pdo735rv1w7)" height="113" style="stroke: #000000; stroke-width: 1.5;" width="505" x="749" y="67"/><line style="stroke: #000000; stroke-width: 1.5;" x1="749" x2="1254" y1="87.4883" y2="87.4883"/><text fill="#000000" font-family="sans-serif" font-size="14" font-weight="bold" lengthAdjust="spacingAndGlyphs" textLength="78" x="962.5" y="82.5352">Repository</text><!--cluster auth.Domain.models--><rect fill="#FFFFFF" filter="url(#f6pdo735rv1w7)" height="398" style="stroke: #000000; stroke-width: 1.5;" width="1071" x="392" y="624"/><line style="stroke: #000000; stroke-width: 1.5;" x1="392" x2="1463" y1="644.4883" y2="644.4883"/><text fill="#000000" font-family="sans-serif" font-size="14" font-weight="bold" lengthAdjust="spacingAndGlyphs" textLength="52" x="901.5" y="639.5352">Models</text><!--cluster auth.Domain.models.values--><rect fill="#FFFFFF" filter="url(#f6pdo735rv1w7)" height="249" style="stroke: #000000; stroke-width: 1.5;" width="658.5" x="416" y="667"/><line style="stroke: #000000; stroke-width: 1.5;" x1="416" x2="1074.5" y1="687.4883" y2="687.4883"/><text fill="#000000" font-family="sans-serif" font-size="14" font-weight="bold" lengthAdjust="spacingAndGlyphs" textLength="46" x="722.25" y="682.5352">values</text><!--cluster auth.domain.values.email--><polygon fill="#FFFFFF" filter="url(#f6pdo735rv1w7)" points="440,710,627,710,634,732.4883,637,732.4883,637,892,440,892,440,710" style="stroke: #000000; stroke-width: 1.5;"/><line style="stroke: #000000; stroke-width: 1.5;" x1="440" x2="634" y1="732.4883" y2="732.4883"/><text fill="#000000" font-family="sans-serif" font-size="14" font-weight="bold" lengthAdjust="spacingAndGlyphs" textLength="181" x="444" y="725.5352">auth.domain.values.email</text><!--cluster auth.UseCase--><rect fill="#FFFFFF" filter="url(#f6pdo735rv1w7)" height="259" style="stroke: #000000; stroke-width: 1.5;" width="336" x="22" y="204"/><line style="stroke: #000000; stroke-width: 1.5;" x1="22" x2="358" y1="224.4883" y2="224.4883"/><text fill="#000000" font-family="sans-serif" font-size="14" font-weight="bold" lengthAdjust="spacingAndGlyphs" textLength="60" x="160" y="219.5352">UseCase</text><!--cluster auth.UseCase.vchat.app--><polygon fill="#FFFFFF" filter="url(#f6pdo735rv1w7)" points="46,247,119,247,126,269.4883,334,269.4883,334,439,46,439,46,247" style="stroke: #000000; stroke-width: 1.5;"/><line style="stroke: #000000; stroke-width: 1.5;" x1="46" x2="126" y1="269.4883" y2="269.4883"/><text fill="#000000" font-family="sans-serif" font-size="14" font-weight="bold" lengthAdjust="spacingAndGlyphs" textLength="67" x="50" y="262.5352">vchat.app</text><!--cluster auth.UseCase.vchat.app.email--><polygon fill="#FFFFFF" filter="url(#f6pdo735rv1w7)" points="70,290,204,290,211,312.4883,310,312.4883,310,415,70,415,70,290" style="stroke: #000000; stroke-width: 1.5;"/><line style="stroke: #000000; stroke-width: 1.5;" x1="70" x2="211" y1="312.4883" y2="312.4883"/><text fill="#000000" font-family="sans-serif" font-size="14" font-weight="bold" lengthAdjust="spacingAndGlyphs" textLength="128" x="74" y="305.5352">service.auth.email</text><!--cluster state.Domain.models.values--><polygon fill="#FFFFFF" filter="url(#f6pdo735rv1w7)" points="430,1070,636,1070,643,1092.4883,646,1092.4883,646,1169,430,1169,430,1070" style="stroke: #000000; stroke-width: 1.5;"/><line style="stroke: #000000; stroke-width: 1.5;" x1="430" x2="643" y1="1092.4883" y2="1092.4883"/><text fill="#000000" font-family="sans-serif" font-size="14" font-weight="bold" lengthAdjust="spacingAndGlyphs" textLength="200" x="434" y="1085.5352">state.Domain.models.values</text><!--class auth.Domain.CQ.api.email.EmailAuthorizer--><rect fill="#FEFECE" filter="url(#f6pdo735rv1w7)" height="99.8203" id="auth.Domain.CQ.api.email.EmailAuthorizer" style="stroke: #A80036; stroke-width: 1.5;" width="156" x="460" y="312"/><ellipse cx="489.85" cy="328" fill="#B4A7E5" rx="11" ry="11" style="stroke: #A80036; stroke-width: 1.0;"/><path d="M486.2777,324.2651 L486.2777,322.1069 L493.6571,322.1069 L493.6571,324.2651 L491.1918,324.2651 L491.1918,332.3418 L493.6571,332.3418 L493.6571,334.5 L486.2777,334.5 L486.2777,332.3418 L488.7431,332.3418 L488.7431,324.2651 Z "/><text fill="#000000" font-family="sans-serif" font-size="12" font-style="italic" lengthAdjust="spacingAndGlyphs" textLength="91" x="507.15" y="332.5352">EmailAuthorizer</text><line style="stroke: #A80036; stroke-width: 1.5;" x1="461" x2="615" y1="344" y2="344"/><ellipse cx="471" cy="355.9775" fill="none" rx="3" ry="3" style="stroke: #038048; stroke-width: 1.0;"/><text fill="#000000" font-family="sans-serif" font-size="11" lengthAdjust="spacingAndGlyphs" textLength="130" x="480" y="358.6348">memberEmailRepository</text><line style="stroke: #A80036; stroke-width: 1.5;" x1="461" x2="615" y1="364.9551" y2="364.9551"/><ellipse cx="471" cy="376.9326" fill="#84BE84" rx="3" ry="3" style="stroke: #038048; stroke-width: 1.0;"/><text fill="#000000" font-family="sans-serif" font-size="11" lengthAdjust="spacingAndGlyphs" textLength="108" x="480" y="379.5898">createAuthNStatus()</text><ellipse cx="471" cy="389.8877" fill="#84BE84" rx="3" ry="3" style="stroke: #038048; stroke-width: 1.0;"/><text fill="#000000" font-family="sans-serif" font-size="11" lengthAdjust="spacingAndGlyphs" textLength="89" x="480" y="392.5449">verifyPassword()</text><ellipse cx="471" cy="402.8428" fill="#84BE84" rx="3" ry="3" style="stroke: #038048; stroke-width: 1.0;"/><text fill="#000000" font-family="sans-serif" font-size="11" lengthAdjust="spacingAndGlyphs" textLength="111" x="480" y="405.5">verifyEmailAddress()</text><!--class auth.Domain.CQ.api.email.command.CreateEmailAuth--><rect fill="#FEFECE" filter="url(#f6pdo735rv1w7)" height="60.9551" id="auth.Domain.CQ.api.email.command.CreateEmailAuth" style="stroke: #A80036; stroke-width: 1.5;" width="134" x="934.5" y="474.5"/><ellipse cx="952.65" cy="490.5" fill="#B4A7E5" rx="11" ry="11" style="stroke: #A80036; stroke-width: 1.0;"/><path d="M949.0777,486.7651 L949.0777,484.6069 L956.4571,484.6069 L956.4571,486.7651 L953.9918,486.7651 L953.9918,494.8418 L956.4571,494.8418 L956.4571,497 L949.0777,497 L949.0777,494.8418 L951.5431,494.8418 L951.5431,486.7651 Z "/><text fill="#000000" font-family="sans-serif" font-size="12" font-style="italic" lengthAdjust="spacingAndGlyphs" textLength="95" x="967.35" y="495.0352">CreateEmailAuth</text><line style="stroke: #A80036; stroke-width: 1.5;" x1="935.5" x2="1067.5" y1="506.5" y2="506.5"/><line style="stroke: #A80036; stroke-width: 1.5;" x1="935.5" x2="1067.5" y1="514.5" y2="514.5"/><ellipse cx="945.5" cy="526.4775" fill="#84BE84" rx="3" ry="3" style="stroke: #038048; stroke-width: 1.0;"/><text fill="#000000" font-family="sans-serif" font-size="11" lengthAdjust="spacingAndGlyphs" textLength="108" x="954.5" y="529.1348">createAuthNStatus()</text><!--class auth.Domain.CQ.api.email.query.GetEmailAuth--><rect fill="#FEFECE" filter="url(#f6pdo735rv1w7)" height="73.9102" id="auth.Domain.CQ.api.email.query.GetEmailAuth" style="stroke: #A80036; stroke-width: 1.5;" width="137" x="933" y="325"/><ellipse cx="960.6" cy="341" fill="#B4A7E5" rx="11" ry="11" style="stroke: #A80036; stroke-width: 1.0;"/><path d="M957.0277,337.2651 L957.0277,335.1069 L964.4071,335.1069 L964.4071,337.2651 L961.9418,337.2651 L961.9418,345.3418 L964.4071,345.3418 L964.4071,347.5 L957.0277,347.5 L957.0277,345.3418 L959.4931,345.3418 L959.4931,337.2651 Z "/><text fill="#000000" font-family="sans-serif" font-size="12" font-style="italic" lengthAdjust="spacingAndGlyphs" textLength="77" x="977.4" y="345.5352">GetEmailAuth</text><line style="stroke: #A80036; stroke-width: 1.5;" x1="934" x2="1069" y1="357" y2="357"/><line style="stroke: #A80036; stroke-width: 1.5;" x1="934" x2="1069" y1="365" y2="365"/><ellipse cx="944" cy="376.9775" fill="#84BE84" rx="3" ry="3" style="stroke: #038048; stroke-width: 1.0;"/><text fill="#000000" font-family="sans-serif" font-size="11" lengthAdjust="spacingAndGlyphs" textLength="89" x="953" y="379.6348">verifyPassword()</text><ellipse cx="944" cy="389.9326" fill="#84BE84" rx="3" ry="3" style="stroke: #038048; stroke-width: 1.0;"/><text fill="#000000" font-family="sans-serif" font-size="11" lengthAdjust="spacingAndGlyphs" textLength="111" x="953" y="392.5898">verifyEmailAddress()</text><!--class auth.Domain.Repository.MemberEmailRepository--><rect fill="#FEFECE" filter="url(#f6pdo735rv1w7)" height="60.9551" id="auth.Domain.Repository.MemberEmailRepository" style="stroke: #A80036; stroke-width: 1.5;" width="473" x="765" y="102.5"/><ellipse cx="927.25" cy="118.5" fill="#B4A7E5" rx="11" ry="11" style="stroke: #A80036; stroke-width: 1.0;"/><path d="M923.6777,114.7651 L923.6777,112.6069 L931.0571,112.6069 L931.0571,114.7651 L928.5918,114.7651 L928.5918,122.8418 L931.0571,122.8418 L931.0571,125 L923.6777,125 L923.6777,122.8418 L926.1431,122.8418 L926.1431,114.7651 Z "/><text fill="#000000" font-family="sans-serif" font-size="12" font-style="italic" lengthAdjust="spacingAndGlyphs" textLength="140" x="947.75" y="123.0352">MemberEmailRepository</text><line style="stroke: #A80036; stroke-width: 1.5;" x1="766" x2="1237" y1="134.5" y2="134.5"/><line style="stroke: #A80036; stroke-width: 1.5;" x1="766" x2="1237" y1="142.5" y2="142.5"/><ellipse cx="776" cy="154.4775" fill="#84BE84" rx="3" ry="3" style="stroke: #038048; stroke-width: 1.0;"/><text fill="#000000" font-family="sans-serif" font-size="11" lengthAdjust="spacingAndGlyphs" textLength="447" x="785" y="157.1348">exists(emailAddress: AuthEmailAddress,rawPassword: String): OptionT[IO, Boolean]</text><!--class auth.Domain.models.AuthN--><rect fill="#FEFECE" filter="url(#f6pdo735rv1w7)" height="60.9551" id="auth.Domain.models.AuthN" style="stroke: #A80036; stroke-width: 1.5;" width="75" x="1361" y="781.5"/><ellipse cx="1379.6" cy="797.5" fill="#B4A7E5" rx="11" ry="11" style="stroke: #A80036; stroke-width: 1.0;"/><path d="M1376.0277,793.7651 L1376.0277,791.6069 L1383.4071,791.6069 L1383.4071,793.7651 L1380.9418,793.7651 L1380.9418,801.8418 L1383.4071,801.8418 L1383.4071,804 L1376.0277,804 L1376.0277,801.8418 L1378.4931,801.8418 L1378.4931,793.7651 Z "/><text fill="#000000" font-family="sans-serif" font-size="12" font-style="italic" lengthAdjust="spacingAndGlyphs" textLength="35" x="1394.4" y="802.0352">AuthN</text><line style="stroke: #A80036; stroke-width: 1.5;" x1="1362" x2="1435" y1="813.5" y2="813.5"/><line style="stroke: #A80036; stroke-width: 1.5;" x1="1362" x2="1435" y1="821.5" y2="821.5"/><ellipse cx="1372" cy="833.4775" fill="#84BE84" rx="3" ry="3" style="stroke: #038048; stroke-width: 1.0;"/><text fill="#000000" font-family="sans-serif" font-size="11" lengthAdjust="spacingAndGlyphs" textLength="49" x="1381" y="836.1348">tryAuth()</text><!--class auth.Domain.models.AuthZ--><rect fill="#FEFECE" filter="url(#f6pdo735rv1w7)" height="60.9551" id="auth.Domain.models.AuthZ" style="stroke: #A80036; stroke-width: 1.5;" width="97" x="1350" y="685.5"/><ellipse cx="1379.4" cy="701.5" fill="#B4A7E5" rx="11" ry="11" style="stroke: #A80036; stroke-width: 1.0;"/><path d="M1375.8277,697.7651 L1375.8277,695.6069 L1383.2071,695.6069 L1383.2071,697.7651 L1380.7418,697.7651 L1380.7418,705.8418 L1383.2071,705.8418 L1383.2071,708 L1375.8277,708 L1375.8277,705.8418 L1378.2931,705.8418 L1378.2931,697.7651 Z "/><text fill="#000000" font-family="sans-serif" font-size="12" font-style="italic" lengthAdjust="spacingAndGlyphs" textLength="33" x="1396.6" y="706.0352">AuthZ</text><line style="stroke: #A80036; stroke-width: 1.5;" x1="1351" x2="1446" y1="717.5" y2="717.5"/><line style="stroke: #A80036; stroke-width: 1.5;" x1="1351" x2="1446" y1="725.5" y2="725.5"/><ellipse cx="1361" cy="737.4775" fill="#84BE84" rx="3" ry="3" style="stroke: #038048; stroke-width: 1.0;"/><text fill="#000000" font-family="sans-serif" font-size="11" lengthAdjust="spacingAndGlyphs" textLength="71" x="1370" y="740.1348">verifyToken()</text><!--class auth.Domain.models.LoginContext--><rect fill="#FEFECE" filter="url(#f6pdo735rv1w7)" height="73.9102" id="auth.Domain.models.LoginContext" style="stroke: #A80036; stroke-width: 1.5;" width="164" x="919.5" y="932"/><ellipse cx="960.6" cy="948" fill="#ADD1B2" rx="11" ry="11" style="stroke: #A80036; stroke-width: 1.0;"/><path d="M963.0731,954.1431 Q962.4921,954.4419 961.8529,954.5913 Q961.2138,954.7407 960.5082,954.7407 Q958.0014,954.7407 956.6815,953.0889 Q955.3617,951.437 955.3617,948.3159 Q955.3617,945.1865 956.6815,943.5347 Q958.0014,941.8828 960.5082,941.8828 Q961.2138,941.8828 961.8612,942.0322 Q962.5087,942.1816 963.0731,942.4805 L963.0731,945.2031 Q962.4423,944.6221 961.8488,944.3523 Q961.2553,944.0825 960.6244,944.0825 Q959.2797,944.0825 958.5949,945.1492 Q957.9101,946.2158 957.9101,948.3159 Q957.9101,950.4077 958.5949,951.4744 Q959.2797,952.541 960.6244,952.541 Q961.2553,952.541 961.8488,952.2712 Q962.4423,952.0015 963.0731,951.4204 Z "/><text fill="#000000" font-family="sans-serif" font-size="12" lengthAdjust="spacingAndGlyphs" textLength="74" x="980.4" y="952.5352">LoginContext</text><line style="stroke: #A80036; stroke-width: 1.5;" x1="920.5" x2="1082.5" y1="964" y2="964"/><ellipse cx="930.5" cy="975.9775" fill="none" rx="3" ry="3" style="stroke: #038048; stroke-width: 1.0;"/><text fill="#000000" font-family="sans-serif" font-size="11" lengthAdjust="spacingAndGlyphs" textLength="110" x="939.5" y="978.6348">sessionID: SessionID</text><ellipse cx="930.5" cy="988.9326" fill="none" rx="3" ry="3" style="stroke: #038048; stroke-width: 1.0;"/><text fill="#000000" font-family="sans-serif" font-size="11" lengthAdjust="spacingAndGlyphs" textLength="138" x="939.5" y="991.5898">authNStatus: AuthNStatus</text><line style="stroke: #A80036; stroke-width: 1.5;" x1="920.5" x2="1082.5" y1="997.9102" y2="997.9102"/><!--class auth.Domain.models.values.AccessToken--><rect fill="#FEFECE" filter="url(#f6pdo735rv1w7)" height="73.9102" id="auth.Domain.models.values.AccessToken" style="stroke: #A80036; stroke-width: 1.5;" width="114" x="944.5" y="732"/><ellipse cx="962.65" cy="748" fill="#B4A7E5" rx="11" ry="11" style="stroke: #A80036; stroke-width: 1.0;"/><path d="M959.0777,744.2651 L959.0777,742.1069 L966.4571,742.1069 L966.4571,744.2651 L963.9918,744.2651 L963.9918,752.3418 L966.4571,752.3418 L966.4571,754.5 L959.0777,754.5 L959.0777,752.3418 L961.5431,752.3418 L961.5431,744.2651 Z "/><text fill="#000000" font-family="sans-serif" font-size="12" font-style="italic" lengthAdjust="spacingAndGlyphs" textLength="75" x="977.35" y="752.5352">AccessToken</text><line style="stroke: #A80036; stroke-width: 1.5;" x1="945.5" x2="1057.5" y1="764" y2="764"/><ellipse cx="955.5" cy="775.9775" fill="none" rx="3" ry="3" style="stroke: #038048; stroke-width: 1.0;"/><text fill="#000000" font-family="sans-serif" font-size="11" lengthAdjust="spacingAndGlyphs" textLength="88" x="964.5" y="778.6348">token: SessionID</text><line style="stroke: #A80036; stroke-width: 1.5;" x1="945.5" x2="1057.5" y1="784.9551" y2="784.9551"/><ellipse cx="955.5" cy="796.9326" fill="#84BE84" rx="3" ry="3" style="stroke: #038048; stroke-width: 1.0;"/><text fill="#000000" font-family="sans-serif" font-size="11" lengthAdjust="spacingAndGlyphs" textLength="85" x="964.5" y="799.5898">base64(): String</text><!--class auth.Domain.models.values.AuthNStatus--><rect fill="#FEFECE" filter="url(#f6pdo735rv1w7)" height="48" id="auth.Domain.models.values.AuthNStatus" style="stroke: #A80036; stroke-width: 1.5;" width="101" x="951" y="845"/><ellipse cx="966" cy="861" fill="#B4A7E5" rx="11" ry="11" style="stroke: #A80036; stroke-width: 1.0;"/><path d="M962.4277,857.2651 L962.4277,855.1069 L969.8071,855.1069 L969.8071,857.2651 L967.3418,857.2651 L967.3418,865.3418 L969.8071,865.3418 L969.8071,867.5 L962.4277,867.5 L962.4277,865.3418 L964.8931,865.3418 L964.8931,857.2651 Z "/><text fill="#000000" font-family="sans-serif" font-size="12" font-style="italic" lengthAdjust="spacingAndGlyphs" textLength="69" x="980" y="865.5352">AuthNStatus</text><line style="stroke: #A80036; stroke-width: 1.5;" x1="952" x2="1051" y1="877" y2="877"/><line style="stroke: #A80036; stroke-width: 1.5;" x1="952" x2="1051" y1="885" y2="885"/><!--class EmailAccessToken--><rect fill="#FEFECE" filter="url(#f6pdo735rv1w7)" height="48" id="EmailAccessToken" style="stroke: #A80036; stroke-width: 1.5;" width="138" x="469" y="745"/><ellipse cx="484" cy="761" fill="#ADD1B2" rx="11" ry="11" style="stroke: #A80036; stroke-width: 1.0;"/><path d="M486.4731,767.1431 Q485.8921,767.4419 485.2529,767.5913 Q484.6138,767.7407 483.9082,767.7407 Q481.4014,767.7407 480.0815,766.0889 Q478.7617,764.437 478.7617,761.3159 Q478.7617,758.1865 480.0815,756.5347 Q481.4014,754.8828 483.9082,754.8828 Q484.6138,754.8828 485.2612,755.0322 Q485.9087,755.1816 486.4731,755.4805 L486.4731,758.2031 Q485.8423,757.6221 485.2488,757.3523 Q484.6553,757.0825 484.0244,757.0825 Q482.6797,757.0825 481.9949,758.1492 Q481.3101,759.2158 481.3101,761.3159 Q481.3101,763.4077 481.9949,764.4744 Q482.6797,765.541 484.0244,765.541 Q484.6553,765.541 485.2488,765.2712 Q485.8423,765.0015 486.4731,764.4204 Z "/><text fill="#000000" font-family="sans-serif" font-size="12" lengthAdjust="spacingAndGlyphs" textLength="106" x="498" y="765.5352">EmailAccessToken</text><line style="stroke: #A80036; stroke-width: 1.5;" x1="470" x2="606" y1="777" y2="777"/><line style="stroke: #A80036; stroke-width: 1.5;" x1="470" x2="606" y1="785" y2="785"/><!--class EmailAuthNStatus--><rect fill="#FEFECE" filter="url(#f6pdo735rv1w7)" height="48" id="EmailAuthNStatus" style="stroke: #A80036; stroke-width: 1.5;" width="132" x="472" y="828"/><ellipse cx="487" cy="844" fill="#ADD1B2" rx="11" ry="11" style="stroke: #A80036; stroke-width: 1.0;"/><path d="M489.4731,850.1431 Q488.8921,850.4419 488.2529,850.5913 Q487.6138,850.7407 486.9082,850.7407 Q484.4014,850.7407 483.0815,849.0889 Q481.7617,847.437 481.7617,844.3159 Q481.7617,841.1865 483.0815,839.5347 Q484.4014,837.8828 486.9082,837.8828 Q487.6138,837.8828 488.2612,838.0322 Q488.9087,838.1816 489.4731,838.4805 L489.4731,841.2031 Q488.8423,840.6221 488.2488,840.3523 Q487.6553,840.0825 487.0244,840.0825 Q485.6797,840.0825 484.9949,841.1492 Q484.3101,842.2158 484.3101,844.3159 Q484.3101,846.4077 484.9949,847.4744 Q485.6797,848.541 487.0244,848.541 Q487.6553,848.541 488.2488,848.2712 Q488.8423,848.0015 489.4731,847.4204 Z "/><text fill="#000000" font-family="sans-serif" font-size="12" lengthAdjust="spacingAndGlyphs" textLength="100" x="501" y="848.5352">EmailAuthNStatus</text><line style="stroke: #A80036; stroke-width: 1.5;" x1="473" x2="603" y1="860" y2="860"/><line style="stroke: #A80036; stroke-width: 1.5;" x1="473" x2="603" y1="868" y2="868"/><!--class auth.UseCase.vchat.app.email.EmailAuth--><rect fill="#FEFECE" filter="url(#f6pdo735rv1w7)" height="73.9102" id="auth.UseCase.vchat.app.email.EmailAuth" style="stroke: #A80036; stroke-width: 1.5;" width="208" x="86" y="325"/><ellipse cx="157.25" cy="341" fill="#ADD1B2" rx="11" ry="11" style="stroke: #A80036; stroke-width: 1.0;"/><path d="M159.7231,347.1431 Q159.1421,347.4419 158.5029,347.5913 Q157.8638,347.7407 157.1582,347.7407 Q154.6514,347.7407 153.3315,346.0889 Q152.0117,344.437 152.0117,341.3159 Q152.0117,338.1865 153.3315,336.5347 Q154.6514,334.8828 157.1582,334.8828 Q157.8638,334.8828 158.5112,335.0322 Q159.1587,335.1816 159.7231,335.4805 L159.7231,338.2031 Q159.0923,337.6221 158.4988,337.3523 Q157.9053,337.0825 157.2744,337.0825 Q155.9297,337.0825 155.2449,338.1492 Q154.5601,339.2158 154.5601,341.3159 Q154.5601,343.4077 155.2449,344.4744 Q155.9297,345.541 157.2744,345.541 Q157.9053,345.541 158.4988,345.2712 Q159.0923,345.0015 159.7231,344.4204 Z "/><text fill="#000000" font-family="sans-serif" font-size="12" lengthAdjust="spacingAndGlyphs" textLength="57" x="177.75" y="345.5352">EmailAuth</text><line style="stroke: #A80036; stroke-width: 1.5;" x1="87" x2="293" y1="357" y2="357"/><ellipse cx="97" cy="368.9775" fill="none" rx="3" ry="3" style="stroke: #038048; stroke-width: 1.0;"/><text fill="#000000" font-family="sans-serif" font-size="11" lengthAdjust="spacingAndGlyphs" textLength="148" x="106" y="371.6348">authorizer: EmailAuthorizer</text><ellipse cx="97" cy="381.9326" fill="none" rx="3" ry="3" style="stroke: #038048; stroke-width: 1.0;"/><text fill="#000000" font-family="sans-serif" font-size="11" lengthAdjust="spacingAndGlyphs" textLength="182" x="106" y="384.5898">contextManager: ContextManager</text><line style="stroke: #A80036; stroke-width: 1.5;" x1="87" x2="293" y1="390.9102" y2="390.9102"/><!--class state.Domain.models.values.SessionID--><rect fill="#FEFECE" filter="url(#f6pdo735rv1w7)" height="48" id="state.Domain.models.values.SessionID" style="stroke: #A80036; stroke-width: 1.5;" width="86" x="495" y="1105"/><ellipse cx="510" cy="1121" fill="#ADD1B2" rx="11" ry="11" style="stroke: #A80036; stroke-width: 1.0;"/><path d="M512.4731,1127.1431 Q511.8921,1127.4419 511.2529,1127.5913 Q510.6138,1127.7407 509.9082,1127.7407 Q507.4014,1127.7407 506.0815,1126.0889 Q504.7617,1124.437 504.7617,1121.3159 Q504.7617,1118.1865 506.0815,1116.5347 Q507.4014,1114.8828 509.9082,1114.8828 Q510.6138,1114.8828 511.2612,1115.0322 Q511.9087,1115.1816 512.4731,1115.4805 L512.4731,1118.2031 Q511.8423,1117.6221 511.2488,1117.3523 Q510.6553,1117.0825 510.0244,1117.0825 Q508.6797,1117.0825 507.9949,1118.1492 Q507.3101,1119.2158 507.3101,1121.3159 Q507.3101,1123.4077 507.9949,1124.4744 Q508.6797,1125.541 510.0244,1125.541 Q510.6553,1125.541 511.2488,1125.2712 Q511.8423,1125.0015 512.4731,1124.4204 Z "/><text fill="#000000" font-family="sans-serif" font-size="12" lengthAdjust="spacingAndGlyphs" textLength="54" x="524" y="1125.5352">SessionID</text><line style="stroke: #A80036; stroke-width: 1.5;" x1="496" x2="580" y1="1137" y2="1137"/><line style="stroke: #A80036; stroke-width: 1.5;" x1="496" x2="580" y1="1145" y2="1145"/><!--link auth.Domain.CQ.api.email.EmailAuthorizer to auth.Domain.Repository.MemberEmailRepository--><path d="M616.24,323.67 C702.79,280.73 842.06,211.62 927.03,169.46 " fill="none" id="auth.Domain.CQ.api.email.EmailAuthorizer-auth.Domain.Repository.MemberEmailRepository" style="stroke: #A80036; stroke-width: 1.0;"/><polygon fill="#A80036" points="938.9,163.56,931.7477,162.641,928.1485,168.8896,935.3008,169.8086,938.9,163.56" style="stroke: #A80036; stroke-width: 1.0;"/><!--link auth.Domain.CQ.api.email.EmailAuthorizer to auth.Domain.CQ.api.email.command.CreateEmailAuth--><path d="M616.24,385.93 C698.85,411.53 829.49,452.01 915.1,478.54 " fill="none" id="auth.Domain.CQ.api.email.EmailAuthorizer-auth.Domain.CQ.api.email.command.CreateEmailAuth" style="stroke: #A80036; stroke-width: 1.0;"/><polygon fill="none" points="917.21,471.86,934.24,484.47,913.07,485.24,917.21,471.86" style="stroke: #A80036; stroke-width: 1.0;"/><!--link auth.Domain.CQ.api.email.EmailAuthorizer to auth.Domain.CQ.api.email.query.GetEmailAuth--><path d="M616.24,362 C698.03,362 826.89,362 912.53,362 " fill="none" id="auth.Domain.CQ.api.email.EmailAuthorizer-auth.Domain.CQ.api.email.query.GetEmailAuth" style="stroke: #A80036; stroke-width: 1.0;"/><polygon fill="none" points="912.78,355,932.78,362,912.78,369,912.78,355" style="stroke: #A80036; stroke-width: 1.0;"/><!--link auth.Domain.models.values.AccessToken to auth.Domain.models.AuthZ--><path d="M1058.67,761.46 C1136.74,750.99 1276.66,732.21 1349.88,722.39 " fill="none" id="auth.Domain.models.values.AccessToken-auth.Domain.models.AuthZ" style="stroke: #A80036; stroke-width: 1.0;"/><polygon fill="#000000" points="1278,718.1553,1272,721.1553,1278,724.1553,1278,718.1553" style="stroke: #000000; stroke-width: 1.0;"/><text fill="#000000" font-family="sans-serif" font-size="13" lengthAdjust="spacingAndGlyphs" textLength="35" x="1284" y="724.5684">verify</text><!--link auth.Domain.models.values.AccessToken to auth.Domain.models.AuthN--><path d="M1058.67,775.12 C1133.66,783.28 1265.74,797.66 1340.93,805.84 " fill="none" id="auth.Domain.models.values.AccessToken-auth.Domain.models.AuthN" style="stroke: #A80036; stroke-width: 1.0;"/><polygon fill="none" points="1341.85,798.9,1360.98,808.02,1340.34,812.82,1341.85,798.9" style="stroke: #A80036; stroke-width: 1.0;"/><!--link EmailAccessToken to auth.Domain.models.values.AccessToken--><path d="M607.1,769 C691.82,769 836.07,769 924.37,769 " fill="none" id="EmailAccessToken-auth.Domain.models.values.AccessToken" style="stroke: #A80036; stroke-width: 1.0;"/><polygon fill="none" points="924.47,762,944.47,769,924.47,776,924.47,762" style="stroke: #A80036; stroke-width: 1.0;"/><!--link EmailAuthNStatus to auth.Domain.models.values.AuthNStatus--><path d="M604.14,854.4 C690.52,857.58 842.32,863.17 930.88,866.44 " fill="none" id="EmailAuthNStatus-auth.Domain.models.values.AuthNStatus" style="stroke: #A80036; stroke-width: 1.0;"/><polygon fill="none" points="931.17,859.44,950.9,867.17,930.66,873.43,931.17,859.44" style="stroke: #A80036; stroke-width: 1.0;"/><!--link auth.Domain.models.values.AuthNStatus to auth.Domain.models.LoginContext--><path d="M1001.5,906.46 C1001.5,915.7 1001.5,926.23 1001.5,931.84 " fill="none" id="auth.Domain.models.values.AuthNStatus-auth.Domain.models.LoginContext" style="stroke: #A80036; stroke-width: 1.0;"/><polygon fill="#A80036" points="1001.5,893.22,997.5,899.22,1001.5,905.22,1005.5,899.22,1001.5,893.22" style="stroke: #A80036; stroke-width: 1.0;"/><!--link state.Domain.models.values.SessionID to auth.Domain.models.LoginContext--><path d="M593.49,1110.11 C674.11,1082.16 825.71,1029.6 919.41,997.11 " fill="none" id="state.Domain.models.values.SessionID-auth.Domain.models.LoginContext" style="stroke: #A80036; stroke-width: 1.0;"/><polygon fill="#A80036" points="581.18,1114.38,588.1589,1116.1951,592.5186,1110.4511,585.5396,1108.636,581.18,1114.38" style="stroke: #A80036; stroke-width: 1.0;"/><!--link auth.UseCase.vchat.app.email.EmailAuth to auth.Domain.CQ.api.email.EmailAuthorizer--></g></svg>