<?xml version="1.0" encoding="UTF-8" standalone="no"?>
<svg xmlns="http://www.w3.org/2000/svg" xmlns:xlink="http://www.w3.org/1999/xlink" contentScriptType="application/ecmascript" contentStyleType="text/css" height="718px" preserveAspectRatio="none" style="width:1699px;height:718px;" version="1.1" viewBox="0 0 1699 718" width="1699px" zoomAndPan="magnify"><defs><filter height="300%" id="f5eiaktudutjd" width="300%" x="-1" y="-1"><feGaussianBlur result="blurOut" stdDeviation="2.0"/><feColorMatrix in="blurOut" result="blurOut2" type="matrix" values="0 0 0 0 0 0 0 0 0 0 0 0 0 0 0 0 0 0 .4 0"/><feOffset dx="4.0" dy="4.0" in="blurOut2" result="blurOut3"/><feBlend in="SourceGraphic" in2="blurOut3" mode="normal"/></filter></defs><g><!--cluster Infra--><rect fill="#FFFFFF" filter="url(#f5eiaktudutjd)" height="354" style="stroke: #000000; stroke-width: 1.5;" width="1174" x="513" y="24"/><line style="stroke: #000000; stroke-width: 1.5;" x1="513" x2="1687" y1="44.4883" y2="44.4883"/><text fill="#000000" font-family="sans-serif" font-size="14" font-weight="bold" lengthAdjust="spacingAndGlyphs" textLength="69" x="1065.5" y="39.5352">auth.Infra</text><!--cluster Infra.memory--><polygon fill="#FFFFFF" filter="url(#f5eiaktudutjd)" points="537,67,615,67,622,89.4883,1663,89.4883,1663,354,537,354,537,67" style="stroke: #000000; stroke-width: 1.5;"/><line style="stroke: #000000; stroke-width: 1.5;" x1="537" x2="622" y1="89.4883" y2="89.4883"/><text fill="#000000" font-family="sans-serif" font-size="14" font-weight="bold" lengthAdjust="spacingAndGlyphs" textLength="72" x="541" y="82.5352">InMemory</text><!--cluster auth.service--><polygon fill="#FFFFFF" filter="url(#f5eiaktudutjd)" points="188,96,279,96,286,118.4883,489,118.4883,489,235,188,235,188,96" style="stroke: #000000; stroke-width: 1.5;"/><line style="stroke: #000000; stroke-width: 1.5;" x1="188" x2="286" y1="118.4883" y2="118.4883"/><text fill="#000000" font-family="sans-serif" font-size="14" font-weight="bold" lengthAdjust="spacingAndGlyphs" textLength="85" x="192" y="111.5352">auth.service</text><!--cluster auth--><rect fill="#FFFFFF" filter="url(#f5eiaktudutjd)" height="182" style="stroke: #000000; stroke-width: 1.5;" width="204" x="1402.5" y="525"/><rect fill="#FFFFFF" height="10" style="stroke: #000000; stroke-width: 1.5;" width="15" x="1586.5" y="530"/><rect fill="#FFFFFF" height="2" style="stroke: #000000; stroke-width: 1.5;" width="4" x="1584.5" y="532"/><rect fill="#FFFFFF" height="2" style="stroke: #000000; stroke-width: 1.5;" width="4" x="1584.5" y="536"/><text fill="#000000" font-family="sans-serif" font-size="14" font-weight="bold" lengthAdjust="spacingAndGlyphs" textLength="32" x="1488.5" y="551.5352">auth</text><!--cluster state--><rect fill="#FFFFFF" filter="url(#f5eiaktudutjd)" height="99" style="stroke: #000000; stroke-width: 1.5;" width="222" x="1393.5" y="402"/><rect fill="#FFFFFF" height="10" style="stroke: #000000; stroke-width: 1.5;" width="15" x="1595.5" y="407"/><rect fill="#FFFFFF" height="2" style="stroke: #000000; stroke-width: 1.5;" width="4" x="1593.5" y="409"/><rect fill="#FFFFFF" height="2" style="stroke: #000000; stroke-width: 1.5;" width="4" x="1593.5" y="413"/><text fill="#000000" font-family="sans-serif" font-size="14" font-weight="bold" lengthAdjust="spacingAndGlyphs" textLength="36" x="1486.5" y="428.5352">state</text><!--cluster vertx--><rect fill="#FFFFFF" filter="url(#f5eiaktudutjd)" height="97" style="stroke: #000000; stroke-width: 1.5;" width="138" x="22" y="117"/><rect fill="#FFFFFF" height="10" style="stroke: #000000; stroke-width: 1.5;" width="15" x="140" y="122"/><rect fill="#FFFFFF" height="2" style="stroke: #000000; stroke-width: 1.5;" width="4" x="138" y="124"/><rect fill="#FFFFFF" height="2" style="stroke: #000000; stroke-width: 1.5;" width="4" x="138" y="128"/><text fill="#000000" font-family="sans-serif" font-size="14" font-weight="bold" lengthAdjust="spacingAndGlyphs" textLength="36" x="73" y="143.5352">vertx</text><!--class Infra.memory.InMemoryApplicationContextManager--><rect fill="#FEFECE" filter="url(#f5eiaktudutjd)" height="73.9102" id="Infra.memory.InMemoryApplicationContextManager" style="stroke: #A80036; stroke-width: 1.5;" width="284" x="923.5" y="155"/><ellipse cx="955.6" cy="171" fill="#ADD1B2" rx="11" ry="11" style="stroke: #A80036; stroke-width: 1.0;"/><path d="M958.0731,177.1431 Q957.4921,177.4419 956.8529,177.5913 Q956.2138,177.7407 955.5082,177.7407 Q953.0014,177.7407 951.6815,176.0889 Q950.3617,174.437 950.3617,171.3159 Q950.3617,168.1865 951.6815,166.5347 Q953.0014,164.8828 955.5082,164.8828 Q956.2138,164.8828 956.8612,165.0322 Q957.5087,165.1816 958.0731,165.4805 L958.0731,168.2031 Q957.4423,167.6221 956.8488,167.3523 Q956.2553,167.0825 955.6244,167.0825 Q954.2797,167.0825 953.5949,168.1492 Q952.9101,169.2158 952.9101,171.3159 Q952.9101,173.4077 953.5949,174.4744 Q954.2797,175.541 955.6244,175.541 Q956.2553,175.541 956.8488,175.2712 Q957.4423,175.0015 958.0731,174.4204 Z "/><text fill="#000000" font-family="sans-serif" font-size="12" lengthAdjust="spacingAndGlyphs" textLength="214" x="973.4" y="175.5352">InMemoryApplicationContextManager</text><line style="stroke: #A80036; stroke-width: 1.5;" x1="924.5" x2="1206.5" y1="187" y2="187"/><ellipse cx="934.5" cy="198.9775" fill="none" rx="3" ry="3" style="stroke: #038048; stroke-width: 1.0;"/><text fill="#000000" font-family="sans-serif" font-size="11" lengthAdjust="spacingAndGlyphs" textLength="173" x="943.5" y="201.6348">tokenRepo: SessionIDRepository</text><ellipse cx="934.5" cy="211.9326" fill="none" rx="3" ry="3" style="stroke: #038048; stroke-width: 1.0;"/><text fill="#000000" font-family="sans-serif" font-size="11" lengthAdjust="spacingAndGlyphs" textLength="258" x="943.5" y="214.5898">appContextRepo: ApplicationContextRepository</text><line style="stroke: #A80036; stroke-width: 1.5;" x1="924.5" x2="1206.5" y1="220.9102" y2="220.9102"/><!--class Infra.memory.InMemoryApplicationContextRepository--><rect fill="#FEFECE" filter="url(#f5eiaktudutjd)" height="112.7754" id="Infra.memory.InMemoryApplicationContextRepository" style="stroke: #A80036; stroke-width: 1.5;" width="280" x="1364.5" y="224.5"/><ellipse cx="1389.85" cy="240.5" fill="#ADD1B2" rx="11" ry="11" style="stroke: #A80036; stroke-width: 1.0;"/><path d="M1392.3231,246.6431 Q1391.7421,246.9419 1391.1029,247.0913 Q1390.4638,247.2407 1389.7582,247.2407 Q1387.2514,247.2407 1385.9315,245.5889 Q1384.6117,243.937 1384.6117,240.8159 Q1384.6117,237.6865 1385.9315,236.0347 Q1387.2514,234.3828 1389.7582,234.3828 Q1390.4638,234.3828 1391.1112,234.5322 Q1391.7587,234.6816 1392.3231,234.9805 L1392.3231,237.7031 Q1391.6923,237.1221 1391.0988,236.8523 Q1390.5053,236.5825 1389.8744,236.5825 Q1388.5297,236.5825 1387.8449,237.6492 Q1387.1601,238.7158 1387.1601,240.8159 Q1387.1601,242.9077 1387.8449,243.9744 Q1388.5297,245.041 1389.8744,245.041 Q1390.5053,245.041 1391.0988,244.7712 Q1391.6923,244.5015 1392.3231,243.9204 Z "/><text fill="#000000" font-family="sans-serif" font-size="12" lengthAdjust="spacingAndGlyphs" textLength="225" x="1406.15" y="245.0352">InMemoryApplicationContextRepository</text><line style="stroke: #A80036; stroke-width: 1.5;" x1="1365.5" x2="1643.5" y1="256.5" y2="256.5"/><rect fill="none" height="6" style="stroke: #C82930; stroke-width: 1.0;" width="6" x="1372.5" y="265.4775"/><text fill="#000000" font-family="sans-serif" font-size="11" lengthAdjust="spacingAndGlyphs" textLength="218" x="1384.5" y="271.1348">data: Map[SessionID,ApplicationContext]</text><line style="stroke: #A80036; stroke-width: 1.5;" x1="1365.5" x2="1643.5" y1="277.4551" y2="277.4551"/><ellipse cx="1375.5" cy="289.4326" fill="#84BE84" rx="3" ry="3" style="stroke: #038048; stroke-width: 1.0;"/><text fill="#000000" font-family="sans-serif" font-size="11" lengthAdjust="spacingAndGlyphs" textLength="79" x="1384.5" y="292.0898">resetTimeout()</text><ellipse cx="1375.5" cy="302.3877" fill="#84BE84" rx="3" ry="3" style="stroke: #038048; stroke-width: 1.0;"/><text fill="#000000" font-family="sans-serif" font-size="11" lengthAdjust="spacingAndGlyphs" textLength="62" x="1384.5" y="305.0449">contextOf()</text><ellipse cx="1375.5" cy="315.3428" fill="#84BE84" rx="3" ry="3" style="stroke: #038048; stroke-width: 1.0;"/><text fill="#000000" font-family="sans-serif" font-size="11" lengthAdjust="spacingAndGlyphs" textLength="41" x="1384.5" y="318">create()</text><ellipse cx="1375.5" cy="328.2979" fill="#84BE84" rx="3" ry="3" style="stroke: #038048; stroke-width: 1.0;"/><text fill="#000000" font-family="sans-serif" font-size="11" lengthAdjust="spacingAndGlyphs" textLength="254" x="1384.5" y="330.9551">putContext[T &lt;: Context: ClassTag](context: T)</text><!--class Infra.memory.InMemorySessionIDRepository--><rect fill="#FEFECE" filter="url(#f5eiaktudutjd)" height="86.8652" id="Infra.memory.InMemorySessionIDRepository" style="stroke: #A80036; stroke-width: 1.5;" width="285" x="1362" y="102.5"/><ellipse cx="1414.75" cy="118.5" fill="#ADD1B2" rx="11" ry="11" style="stroke: #A80036; stroke-width: 1.0;"/><path d="M1417.2231,124.6431 Q1416.6421,124.9419 1416.0029,125.0913 Q1415.3638,125.2407 1414.6582,125.2407 Q1412.1514,125.2407 1410.8315,123.5889 Q1409.5117,121.937 1409.5117,118.8159 Q1409.5117,115.6865 1410.8315,114.0347 Q1412.1514,112.3828 1414.6582,112.3828 Q1415.3638,112.3828 1416.0112,112.5322 Q1416.6587,112.6816 1417.2231,112.9805 L1417.2231,115.7031 Q1416.5923,115.1221 1415.9988,114.8523 Q1415.4053,114.5825 1414.7744,114.5825 Q1413.4297,114.5825 1412.7449,115.6492 Q1412.0601,116.7158 1412.0601,118.8159 Q1412.0601,120.9077 1412.7449,121.9744 Q1413.4297,123.041 1414.7744,123.041 Q1415.4053,123.041 1415.9988,122.7712 Q1416.5923,122.5015 1417.2231,121.9204 Z "/><text fill="#000000" font-family="sans-serif" font-size="12" lengthAdjust="spacingAndGlyphs" textLength="171" x="1435.25" y="123.0352">InMemorySessionIDRepository</text><line style="stroke: #A80036; stroke-width: 1.5;" x1="1363" x2="1646" y1="134.5" y2="134.5"/><rect fill="none" height="6" style="stroke: #C82930; stroke-width: 1.0;" width="6" x="1370" y="143.4775"/><text fill="#000000" font-family="sans-serif" font-size="11" lengthAdjust="spacingAndGlyphs" textLength="222" x="1382" y="149.1348">data: MutMap[SessionID, SessionIDStatus]</text><line style="stroke: #A80036; stroke-width: 1.5;" x1="1363" x2="1646" y1="155.4551" y2="155.4551"/><ellipse cx="1373" cy="167.4326" fill="#84BE84" rx="3" ry="3" style="stroke: #038048; stroke-width: 1.0;"/><text fill="#000000" font-family="sans-serif" font-size="11" lengthAdjust="spacingAndGlyphs" textLength="119" x="1382" y="170.0898">create(): IO[SessionID]</text><ellipse cx="1373" cy="180.3877" fill="#84BE84" rx="3" ry="3" style="stroke: #038048; stroke-width: 1.0;"/><text fill="#000000" font-family="sans-serif" font-size="11" lengthAdjust="spacingAndGlyphs" textLength="259" x="1382" y="183.0449">verify(sessionID: SessionID): IO[SessionIDStatus]</text><!--class Infra.memory.InMemoryEmailAuthorizer--><rect fill="#FEFECE" filter="url(#f5eiaktudutjd)" height="60.9551" id="Infra.memory.InMemoryEmailAuthorizer" style="stroke: #A80036; stroke-width: 1.5;" width="216" x="553" y="186.5"/><ellipse cx="584.65" cy="202.5" fill="#ADD1B2" rx="11" ry="11" style="stroke: #A80036; stroke-width: 1.0;"/><path d="M587.1231,208.6431 Q586.5421,208.9419 585.9029,209.0913 Q585.2638,209.2407 584.5582,209.2407 Q582.0514,209.2407 580.7315,207.5889 Q579.4117,205.937 579.4117,202.8159 Q579.4117,199.6865 580.7315,198.0347 Q582.0514,196.3828 584.5582,196.3828 Q585.2638,196.3828 585.9112,196.5322 Q586.5587,196.6816 587.1231,196.9805 L587.1231,199.7031 Q586.4923,199.1221 585.8988,198.8523 Q585.3053,198.5825 584.6744,198.5825 Q583.3297,198.5825 582.6449,199.6492 Q581.9601,200.7158 581.9601,202.8159 Q581.9601,204.9077 582.6449,205.9744 Q583.3297,207.041 584.6744,207.041 Q585.3053,207.041 585.8988,206.7712 Q586.4923,206.5015 587.1231,205.9204 Z "/><text fill="#000000" font-family="sans-serif" font-size="12" lengthAdjust="spacingAndGlyphs" textLength="147" x="602.35" y="207.0352">InMemoryEmailAuthorizer</text><line style="stroke: #A80036; stroke-width: 1.5;" x1="554" x2="768" y1="218.5" y2="218.5"/><ellipse cx="564" cy="230.4775" fill="none" rx="3" ry="3" style="stroke: #038048; stroke-width: 1.0;"/><text fill="#000000" font-family="sans-serif" font-size="11" lengthAdjust="spacingAndGlyphs" textLength="190" x="573" y="233.1348">emailRepo: MemberEmailRepository</text><line style="stroke: #A80036; stroke-width: 1.5;" x1="554" x2="768" y1="239.4551" y2="239.4551"/><!--class Infra.memory.InMemoryMemberEmailRepository--><rect fill="#FEFECE" filter="url(#f5eiaktudutjd)" height="73.9102" id="Infra.memory.InMemoryMemberEmailRepository" style="stroke: #A80036; stroke-width: 1.5;" width="473" x="829" y="264"/><ellipse cx="963.25" cy="280" fill="#ADD1B2" rx="11" ry="11" style="stroke: #A80036; stroke-width: 1.0;"/><path d="M965.7231,286.1431 Q965.1421,286.4419 964.5029,286.5913 Q963.8638,286.7407 963.1582,286.7407 Q960.6514,286.7407 959.3315,285.0889 Q958.0117,283.437 958.0117,280.3159 Q958.0117,277.1865 959.3315,275.5347 Q960.6514,273.8828 963.1582,273.8828 Q963.8638,273.8828 964.5112,274.0322 Q965.1587,274.1816 965.7231,274.4805 L965.7231,277.2031 Q965.0923,276.6221 964.4988,276.3523 Q963.9053,276.0825 963.2744,276.0825 Q961.9297,276.0825 961.2449,277.1492 Q960.5601,278.2158 960.5601,280.3159 Q960.5601,282.4077 961.2449,283.4744 Q961.9297,284.541 963.2744,284.541 Q963.9053,284.541 964.4988,284.2712 Q965.0923,284.0015 965.7231,283.4204 Z "/><text fill="#000000" font-family="sans-serif" font-size="12" lengthAdjust="spacingAndGlyphs" textLength="196" x="983.75" y="284.5352">InMemoryMemberEmailRepository</text><line style="stroke: #A80036; stroke-width: 1.5;" x1="830" x2="1301" y1="296" y2="296"/><rect fill="none" height="6" style="stroke: #C82930; stroke-width: 1.0;" width="6" x="837" y="304.9775"/><text fill="#000000" font-family="sans-serif" font-size="11" lengthAdjust="spacingAndGlyphs" textLength="269" x="849" y="310.6348">data: Map[AuthEmailAddress, EncryptedPassword]</text><line style="stroke: #A80036; stroke-width: 1.5;" x1="830" x2="1301" y1="316.9551" y2="316.9551"/><ellipse cx="840" cy="328.9326" fill="#84BE84" rx="3" ry="3" style="stroke: #038048; stroke-width: 1.0;"/><text fill="#000000" font-family="sans-serif" font-size="11" lengthAdjust="spacingAndGlyphs" textLength="447" x="849" y="331.5898">exists(emailAddress: AuthEmailAddress,rawPassword: String): OptionT[IO, Boolean]</text><!--entity ##7--><!--entity ##33--><!--class auth.service.EmailAuth--><rect fill="#FEFECE" filter="url(#f5eiaktudutjd)" height="86.8652" id="auth.service.EmailAuth" style="stroke: #A80036; stroke-width: 1.5;" width="269" x="204" y="131.5"/><ellipse cx="305.75" cy="147.5" fill="#ADD1B2" rx="11" ry="11" style="stroke: #A80036; stroke-width: 1.0;"/><path d="M308.2231,153.6431 Q307.6421,153.9419 307.0029,154.0913 Q306.3638,154.2407 305.6582,154.2407 Q303.1514,154.2407 301.8315,152.5889 Q300.5117,150.937 300.5117,147.8159 Q300.5117,144.6865 301.8315,143.0347 Q303.1514,141.3828 305.6582,141.3828 Q306.3638,141.3828 307.0112,141.5322 Q307.6587,141.6816 308.2231,141.9805 L308.2231,144.7031 Q307.5923,144.1221 306.9988,143.8523 Q306.4053,143.5825 305.7744,143.5825 Q304.4297,143.5825 303.7449,144.6492 Q303.0601,145.7158 303.0601,147.8159 Q303.0601,149.9077 303.7449,150.9744 Q304.4297,152.041 305.7744,152.041 Q306.4053,152.041 306.9988,151.7712 Q307.5923,151.5015 308.2231,150.9204 Z "/><text fill="#000000" font-family="sans-serif" font-size="12" lengthAdjust="spacingAndGlyphs" textLength="57" x="326.25" y="152.0352">EmailAuth</text><line style="stroke: #A80036; stroke-width: 1.5;" x1="205" x2="472" y1="163.5" y2="163.5"/><ellipse cx="215" cy="175.4775" fill="none" rx="3" ry="3" style="stroke: #038048; stroke-width: 1.0;"/><text fill="#000000" font-family="sans-serif" font-size="11" lengthAdjust="spacingAndGlyphs" textLength="178" x="224" y="178.1348">emailAuthorizer: EmailAuthorizer</text><ellipse cx="215" cy="188.4326" fill="none" rx="3" ry="3" style="stroke: #038048; stroke-width: 1.0;"/><text fill="#000000" font-family="sans-serif" font-size="11" lengthAdjust="spacingAndGlyphs" textLength="243" x="224" y="191.0898">contextManager: ApplicationContextManager</text><line style="stroke: #A80036; stroke-width: 1.5;" x1="205" x2="472" y1="197.4102" y2="197.4102"/><ellipse cx="215" cy="209.3877" fill="#84BE84" rx="3" ry="3" style="stroke: #038048; stroke-width: 1.0;"/><text fill="#000000" font-family="sans-serif" font-size="11" lengthAdjust="spacingAndGlyphs" textLength="128" x="224" y="212.0449">login(): LoginStatusData</text><!--class auth.MemberEmailRepository--><rect fill="#FEFECE" filter="url(#f5eiaktudutjd)" height="48" id="auth.MemberEmailRepository" style="stroke: #A80036; stroke-width: 1.5;" width="172" x="1418.5" y="560"/><ellipse cx="1433.5" cy="576" fill="#B4A7E5" rx="11" ry="11" style="stroke: #A80036; stroke-width: 1.0;"/><path d="M1429.9277,572.2651 L1429.9277,570.1069 L1437.3071,570.1069 L1437.3071,572.2651 L1434.8418,572.2651 L1434.8418,580.3418 L1437.3071,580.3418 L1437.3071,582.5 L1429.9277,582.5 L1429.9277,580.3418 L1432.3931,580.3418 L1432.3931,572.2651 Z "/><text fill="#000000" font-family="sans-serif" font-size="12" font-style="italic" lengthAdjust="spacingAndGlyphs" textLength="140" x="1447.5" y="580.5352">MemberEmailRepository</text><line style="stroke: #A80036; stroke-width: 1.5;" x1="1419.5" x2="1589.5" y1="592" y2="592"/><line style="stroke: #A80036; stroke-width: 1.5;" x1="1419.5" x2="1589.5" y1="600" y2="600"/><!--class auth.EmailAuthorizer--><rect fill="#FEFECE" filter="url(#f5eiaktudutjd)" height="48" id="auth.EmailAuthorizer" style="stroke: #A80036; stroke-width: 1.5;" width="123" x="1443" y="643"/><ellipse cx="1458" cy="659" fill="#B4A7E5" rx="11" ry="11" style="stroke: #A80036; stroke-width: 1.0;"/><path d="M1454.4277,655.2651 L1454.4277,653.1069 L1461.8071,653.1069 L1461.8071,655.2651 L1459.3418,655.2651 L1459.3418,663.3418 L1461.8071,663.3418 L1461.8071,665.5 L1454.4277,665.5 L1454.4277,663.3418 L1456.8931,663.3418 L1456.8931,655.2651 Z "/><text fill="#000000" font-family="sans-serif" font-size="12" font-style="italic" lengthAdjust="spacingAndGlyphs" textLength="91" x="1472" y="663.5352">EmailAuthorizer</text><line style="stroke: #A80036; stroke-width: 1.5;" x1="1444" x2="1565" y1="675" y2="675"/><line style="stroke: #A80036; stroke-width: 1.5;" x1="1444" x2="1565" y1="683" y2="683"/><!--class state.ApplicationContextManager--><rect fill="#FEFECE" filter="url(#f5eiaktudutjd)" height="48" id="state.ApplicationContextManager" style="stroke: #A80036; stroke-width: 1.5;" width="190" x="1409.5" y="437"/><ellipse cx="1424.5" cy="453" fill="#B4A7E5" rx="11" ry="11" style="stroke: #A80036; stroke-width: 1.0;"/><path d="M1420.9277,449.2651 L1420.9277,447.1069 L1428.3071,447.1069 L1428.3071,449.2651 L1425.8418,449.2651 L1425.8418,457.3418 L1428.3071,457.3418 L1428.3071,459.5 L1420.9277,459.5 L1420.9277,457.3418 L1423.3931,457.3418 L1423.3931,449.2651 Z "/><text fill="#000000" font-family="sans-serif" font-size="12" font-style="italic" lengthAdjust="spacingAndGlyphs" textLength="158" x="1438.5" y="457.5352">ApplicationContextManager</text><line style="stroke: #A80036; stroke-width: 1.5;" x1="1410.5" x2="1598.5" y1="469" y2="469"/><line style="stroke: #A80036; stroke-width: 1.5;" x1="1410.5" x2="1598.5" y1="477" y2="477"/><!--entity app-base--><rect fill="#FFFFFF" filter="url(#f5eiaktudutjd)" height="46.4883" style="stroke: #A80036; stroke-width: 1.5;" width="106" x="38" y="152"/><rect fill="#FFFFFF" height="10" style="stroke: #A80036; stroke-width: 1.5;" width="15" x="124" y="157"/><rect fill="#FFFFFF" height="2" style="stroke: #A80036; stroke-width: 1.5;" width="4" x="122" y="159"/><rect fill="#FFFFFF" height="2" style="stroke: #A80036; stroke-width: 1.5;" width="4" x="122" y="163"/><text fill="#000000" font-family="sans-serif" font-size="14" lengthAdjust="spacingAndGlyphs" textLength="66" x="53" y="185.5352">app-base</text><!--link app-base to auth.service.EmailAuth--><path d="M164.31,175 C176.89,175 190.32,175 203.93,175 " fill="none" id="app-base-auth.service.EmailAuth" style="stroke: #A80036; stroke-width: 1.0;"/><polygon fill="none" points="164.06,182,144.06,175,164.06,168,164.06,182" style="stroke: #A80036; stroke-width: 1.0;"/><!--link auth.service.EmailAuth to Infra.memory.InMemoryEmailAuthorizer--><path d="M473.1,192.51 C495.25,195.41 518.1,198.4 539.89,201.26 " fill="none" id="auth.service.EmailAuth-Infra.memory.InMemoryEmailAuthorizer" style="stroke: #A80036; stroke-width: 1.0;"/><polygon fill="#A80036" points="552.95,202.97,547.5196,198.2255,541.0514,201.4134,546.4818,206.1579,552.95,202.97" style="stroke: #A80036; stroke-width: 1.0;"/><!--link auth.service.EmailAuth to Infra.memory.InMemoryApplicationContextManager--><path d="M473.09,170.16 C491.91,169.47 505,169 505,169 C505,169 769,169 769,169 C769,169 838.36,174.4 909.88,179.97 " fill="none" id="auth.service.EmailAuth-Infra.memory.InMemoryApplicationContextManager" style="stroke: #A80036; stroke-width: 1.0;"/><polygon fill="#A80036" points="923.24,181.01,917.5656,176.5602,911.2756,180.0866,916.95,184.5364,923.24,181.01" style="stroke: #A80036; stroke-width: 1.0;"/><!--link Infra.memory.InMemoryEmailAuthorizer to auth.EmailAuthorizer--><path d="M728.85,247.61 C750.48,257.52 769,266 769,266 C769,266 829,356 829,356 C829,356 1362,626 1362,626 C1362,626 1391.3,634.49 1423.23,643.74 " fill="none" id="Infra.memory.InMemoryEmailAuthorizer-auth.EmailAuthorizer" style="stroke: #A80036; stroke-width: 1.0;"/><polygon fill="none" points="1425.41,637.08,1442.67,649.37,1421.51,650.53,1425.41,637.08" style="stroke: #A80036; stroke-width: 1.0;"/><!--link Infra.memory.InMemoryEmailAuthorizer to Infra.memory.InMemoryMemberEmailRepository--><path d="M769.07,239.34 C801.46,246.11 838.06,253.74 874.19,261.28 " fill="none" id="Infra.memory.InMemoryEmailAuthorizer-Infra.memory.InMemoryMemberEmailRepository" style="stroke: #A80036; stroke-width: 1.0;"/><polygon fill="#A80036" points="886.94,263.94,881.8785,258.8038,875.1906,261.5004,880.2521,266.6367,886.94,263.94" style="stroke: #A80036; stroke-width: 1.0;"/><!--link Infra.memory.InMemoryMemberEmailRepository to auth.MemberEmailRepository--><path d="M1121.39,338.15 C1206.85,395.99 1362,501 1362,501 C1362,501 1406.2,526.93 1445.2,549.8 " fill="none" id="Infra.memory.InMemoryMemberEmailRepository-auth.MemberEmailRepository" style="stroke: #A80036; stroke-width: 1.0;"/><polygon fill="none" points="1448.86,543.84,1462.57,559.99,1441.78,555.91,1448.86,543.84" style="stroke: #A80036; stroke-width: 1.0;"/><!--link Infra.memory.InMemoryApplicationContextManager to Infra.memory.InMemorySessionIDRepository--><path d="M1207.78,177.13 C1252.81,172.39 1302.87,167.12 1348.8,162.28 " fill="none" id="Infra.memory.InMemoryApplicationContextManager-Infra.memory.InMemorySessionIDRepository" style="stroke: #A80036; stroke-width: 1.0;"/><polygon fill="#A80036" points="1361.96,160.9,1355.5752,157.5483,1350.0256,162.1528,1356.4104,165.5045,1361.96,160.9" style="stroke: #A80036; stroke-width: 1.0;"/><!--link Infra.memory.InMemoryApplicationContextManager to Infra.memory.InMemoryApplicationContextRepository--><path d="M1207.78,220.77 C1253.59,230.1 1304.61,240.49 1351.19,249.98 " fill="none" id="Infra.memory.InMemoryApplicationContextManager-Infra.memory.InMemoryApplicationContextRepository" style="stroke: #A80036; stroke-width: 1.0;"/><polygon fill="#A80036" points="1364.2,252.63,1359.1164,247.5156,1352.4402,250.2411,1357.5238,255.3555,1364.2,252.63" style="stroke: #A80036; stroke-width: 1.0;"/><!--link Infra.memory.InMemoryApplicationContextManager to state.ApplicationContextManager--><path d="M1207.57,224.95 C1257.73,236.66 1302,247 1302,247 C1302,247 1362,354 1362,354 C1362,354 1414.55,393.74 1455.6,424.78 " fill="none" id="Infra.memory.InMemoryApplicationContextManager-state.ApplicationContextManager" style="stroke: #A80036; stroke-width: 1.0;"/><polygon fill="none" points="1460.01,419.34,1471.74,436.99,1451.57,430.51,1460.01,419.34" style="stroke: #A80036; stroke-width: 1.0;"/><!--link Infra.memory.InMemoryEmailAuthorizer to Infra.memory.InMemoryApplicationContextManager--><path d="M769.07,210.35 C816.35,207.41 872.58,203.92 923.23,200.77 " fill="none" id="Infra.memory.InMemoryEmailAuthorizer-Infra.memory.InMemoryApplicationContextManager" style="stroke: #A80036; stroke-width: 1.0;"/></g></svg>