<?xml version="1.0" encoding="UTF-8" standalone="no"?><svg xmlns="http://www.w3.org/2000/svg" xmlns:xlink="http://www.w3.org/1999/xlink" contentScriptType="application/ecmascript" contentStyleType="text/css" height="334px" preserveAspectRatio="none" style="width:523px;height:334px;" version="1.1" viewBox="0 0 523 334" width="523px" zoomAndPan="magnify"><defs><filter height="300%" id="fq1j9bcrg52eo" width="300%" x="-1" y="-1"><feGaussianBlur result="blurOut" stdDeviation="2.0"/><feColorMatrix in="blurOut" result="blurOut2" type="matrix" values="0 0 0 0 0 0 0 0 0 0 0 0 0 0 0 0 0 0 .4 0"/><feOffset dx="4.0" dy="4.0" in="blurOut2" result="blurOut3"/><feBlend in="SourceGraphic" in2="blurOut3" mode="normal"/></filter></defs><g><!--cluster exception--><polygon fill="#FFFFFF" filter="url(#fq1j9bcrg52eo)" points="22,43.5,97,43.5,104,65.9883,166,65.9883,166,142.5,22,142.5,22,43.5" style="stroke: #000000; stroke-width: 1.5;"/><line style="stroke: #000000; stroke-width: 1.5;" x1="22" x2="104" y1="65.9883" y2="65.9883"/><text fill="#000000" font-family="sans-serif" font-size="14" font-weight="bold" lengthAdjust="spacingAndGlyphs" textLength="69" x="26" y="59.0352">exception</text><!--cluster models--><polygon fill="#FFFFFF" filter="url(#fq1j9bcrg52eo)" points="190,24,249,24,256,46.4883,501,46.4883,501,322,190,322,190,24" style="stroke: #000000; stroke-width: 1.5;"/><line style="stroke: #000000; stroke-width: 1.5;" x1="190" x2="256" y1="46.4883" y2="46.4883"/><text fill="#000000" font-family="sans-serif" font-size="14" font-weight="bold" lengthAdjust="spacingAndGlyphs" textLength="53" x="194" y="39.5352">models</text><!--class AppException--><rect fill="#FEFECE" filter="url(#fq1j9bcrg52eo)" height="48" id="AppException" style="stroke: #A80036; stroke-width: 1.5;" width="112" x="38" y="78.5"/><ellipse cx="53" cy="94.5" fill="#B4A7E5" rx="11" ry="11" style="stroke: #A80036; stroke-width: 1.0;"/><path d="M49.4277,90.7651 L49.4277,88.6069 L56.8071,88.6069 L56.8071,90.7651 L54.3418,90.7651 L54.3418,98.8418 L56.8071,98.8418 L56.8071,101 L49.4277,101 L49.4277,98.8418 L51.8931,98.8418 L51.8931,90.7651 Z "/><text fill="#000000" font-family="sans-serif" font-size="12" font-style="italic" lengthAdjust="spacingAndGlyphs" textLength="80" x="67" y="99.0352">AppException</text><line style="stroke: #A80036; stroke-width: 1.5;" x1="39" x2="149" y1="110.5" y2="110.5"/><line style="stroke: #A80036; stroke-width: 1.5;" x1="39" x2="149" y1="118.5" y2="118.5"/><!--class ErrorCode--><rect fill="#FEFECE" filter="url(#fq1j9bcrg52eo)" height="99.8203" id="ErrorCode" style="stroke: #A80036; stroke-width: 1.5;" width="118" x="206" y="206"/><ellipse cx="233.15" cy="222" fill="#B4A7E5" rx="11" ry="11" style="stroke: #A80036; stroke-width: 1.0;"/><path d="M229.5777,218.2651 L229.5777,216.1069 L236.9571,216.1069 L236.9571,218.2651 L234.4918,218.2651 L234.4918,226.3418 L236.9571,226.3418 L236.9571,228.5 L229.5777,228.5 L229.5777,226.3418 L232.0431,226.3418 L232.0431,218.2651 Z "/><text fill="#000000" font-family="sans-serif" font-size="12" font-style="italic" lengthAdjust="spacingAndGlyphs" textLength="59" x="249.85" y="226.5352">ErrorCode</text><line style="stroke: #A80036; stroke-width: 1.5;" x1="207" x2="323" y1="238" y2="238"/><ellipse cx="217" cy="249.9775" fill="none" rx="3" ry="3" style="stroke: #038048; stroke-width: 1.0;"/><text fill="#000000" font-family="sans-serif" font-size="11" lengthAdjust="spacingAndGlyphs" textLength="92" x="226" y="252.6348">errorType: String</text><ellipse cx="217" cy="262.9326" fill="none" rx="3" ry="3" style="stroke: #038048; stroke-width: 1.0;"/><text fill="#000000" font-family="sans-serif" font-size="11" lengthAdjust="spacingAndGlyphs" textLength="46" x="226" y="265.5898">code: Int</text><ellipse cx="217" cy="275.8877" fill="none" rx="3" ry="3" style="stroke: #038048; stroke-width: 1.0;"/><text fill="#000000" font-family="sans-serif" font-size="11" lengthAdjust="spacingAndGlyphs" textLength="85" x="226" y="278.5449">message: String</text><line style="stroke: #A80036; stroke-width: 1.5;" x1="207" x2="323" y1="284.8652" y2="284.8652"/><ellipse cx="217" cy="296.8428" fill="#84BE84" rx="3" ry="3" style="stroke: #038048; stroke-width: 1.0;"/><text fill="#000000" font-family="sans-serif" font-size="11" lengthAdjust="spacingAndGlyphs" textLength="92" x="226" y="299.5">describe(): String</text><!--class ErrorDescription--><rect fill="#FEFECE" filter="url(#fq1j9bcrg52eo)" height="86.8652" id="ErrorDescription" style="stroke: #A80036; stroke-width: 1.5;" width="126" x="359" y="212.5"/><ellipse cx="374" cy="228.5" fill="#ADD1B2" rx="11" ry="11" style="stroke: #A80036; stroke-width: 1.0;"/><path d="M376.4731,234.6431 Q375.8921,234.9419 375.2529,235.0913 Q374.6138,235.2407 373.9082,235.2407 Q371.4014,235.2407 370.0815,233.5889 Q368.7617,231.937 368.7617,228.8159 Q368.7617,225.6865 370.0815,224.0347 Q371.4014,222.3828 373.9082,222.3828 Q374.6138,222.3828 375.2612,222.5322 Q375.9087,222.6816 376.4731,222.9805 L376.4731,225.7031 Q375.8423,225.1221 375.2488,224.8523 Q374.6553,224.5825 374.0244,224.5825 Q372.6797,224.5825 371.9949,225.6492 Q371.3101,226.7158 371.3101,228.8159 Q371.3101,230.9077 371.9949,231.9744 Q372.6797,233.041 374.0244,233.041 Q374.6553,233.041 375.2488,232.7712 Q375.8423,232.5015 376.4731,231.9204 Z "/><text fill="#000000" font-family="sans-serif" font-size="12" lengthAdjust="spacingAndGlyphs" textLength="94" x="388" y="233.0352">ErrorDescription</text><line style="stroke: #A80036; stroke-width: 1.5;" x1="360" x2="484" y1="244.5" y2="244.5"/><ellipse cx="370" cy="256.4775" fill="none" rx="3" ry="3" style="stroke: #038048; stroke-width: 1.0;"/><text fill="#000000" font-family="sans-serif" font-size="11" lengthAdjust="spacingAndGlyphs" textLength="75" x="379" y="259.1348">reason: String</text><ellipse cx="370" cy="269.4326" fill="none" rx="3" ry="3" style="stroke: #038048; stroke-width: 1.0;"/><text fill="#000000" font-family="sans-serif" font-size="11" lengthAdjust="spacingAndGlyphs" textLength="63" x="379" y="272.0898">todo: String</text><ellipse cx="370" cy="282.3877" fill="none" rx="3" ry="3" style="stroke: #038048; stroke-width: 1.0;"/><text fill="#000000" font-family="sans-serif" font-size="11" lengthAdjust="spacingAndGlyphs" textLength="89" x="379" y="285.0449">reference: String</text><line style="stroke: #A80036; stroke-width: 1.5;" x1="360" x2="484" y1="291.3652" y2="291.3652"/><!--class ErrorStatus--><rect fill="#FEFECE" filter="url(#fq1j9bcrg52eo)" height="86.8652" id="ErrorStatus" style="stroke: #A80036; stroke-width: 1.5;" width="183" x="253.5" y="59"/><ellipse cx="309.25" cy="75" fill="#B4A7E5" rx="11" ry="11" style="stroke: #A80036; stroke-width: 1.0;"/><path d="M305.6777,71.2651 L305.6777,69.1069 L313.0571,69.1069 L313.0571,71.2651 L310.5918,71.2651 L310.5918,79.3418 L313.0571,79.3418 L313.0571,81.5 L305.6777,81.5 L305.6777,79.3418 L308.1431,79.3418 L308.1431,71.2651 Z "/><text fill="#000000" font-family="sans-serif" font-size="12" font-style="italic" lengthAdjust="spacingAndGlyphs" textLength="63" x="329.75" y="79.5352">ErrorStatus</text><line style="stroke: #A80036; stroke-width: 1.5;" x1="254.5" x2="435.5" y1="91" y2="91"/><ellipse cx="264.5" cy="102.9775" fill="none" rx="3" ry="3" style="stroke: #038048; stroke-width: 1.0;"/><text fill="#000000" font-family="sans-serif" font-size="11" lengthAdjust="spacingAndGlyphs" textLength="88" x="273.5" y="105.6348">code: ErrorCode</text><ellipse cx="264.5" cy="115.9326" fill="none" rx="3" ry="3" style="stroke: #038048; stroke-width: 1.0;"/><text fill="#000000" font-family="sans-serif" font-size="11" lengthAdjust="spacingAndGlyphs" textLength="157" x="273.5" y="118.5898">description: ErrorDescription</text><line style="stroke: #A80036; stroke-width: 1.5;" x1="254.5" x2="435.5" y1="124.9102" y2="124.9102"/><ellipse cx="264.5" cy="136.8877" fill="#84BE84" rx="3" ry="3" style="stroke: #038048; stroke-width: 1.0;"/><text fill="#000000" font-family="sans-serif" font-size="11" lengthAdjust="spacingAndGlyphs" textLength="144" x="273.5" y="139.5449">toLeft[T](): Left[T, Nothing]</text><!--link ErrorStatus to ErrorCode--><path d="M322.5,146.1 C314.62,161.03 305.6,178.1 297.09,194.23 " fill="none" id="ErrorStatus-ErrorCode" style="stroke: #A80036; stroke-width: 1.0;"/><polygon fill="#A80036" points="291,205.76,297.3403,202.3248,296.608,195.151,290.2677,198.5862,291,205.76" style="stroke: #A80036; stroke-width: 1.0;"/><!--link ErrorStatus to ErrorDescription--><path d="M366.65,146.1 C375.26,163.04 385.27,182.73 394.38,200.67 " fill="none" id="ErrorStatus-ErrorDescription" style="stroke: #A80036; stroke-width: 1.0;"/><polygon fill="#A80036" points="400.38,212.45,401.2217,205.2882,394.9345,201.7567,394.0928,208.9185,400.38,212.45" style="stroke: #A80036; stroke-width: 1.0;"/></g></svg>