<?xml version="1.0" encoding="UTF-8" standalone="no"?><svg xmlns="http://www.w3.org/2000/svg" xmlns:xlink="http://www.w3.org/1999/xlink" contentScriptType="application/ecmascript" contentStyleType="text/css" height="429px" preserveAspectRatio="none" style="width:745px;height:429px;" version="1.1" viewBox="0 0 745 429" width="745px" zoomAndPan="magnify"><defs><filter height="300%" id="f60ljnigth616" width="300%" x="-1" y="-1"><feGaussianBlur result="blurOut" stdDeviation="2.0"/><feColorMatrix in="blurOut" result="blurOut2" type="matrix" values="0 0 0 0 0 0 0 0 0 0 0 0 0 0 0 0 0 0 .4 0"/><feOffset dx="4.0" dy="4.0" in="blurOut2" result="blurOut3"/><feBlend in="SourceGraphic" in2="blurOut3" mode="normal"/></filter></defs><g><!--cluster Domain--><rect fill="#FFFFFF" filter="url(#f60ljnigth616)" height="394" style="stroke: #000000; stroke-width: 1.5;" width="711" x="22" y="24"/><line style="stroke: #000000; stroke-width: 1.5;" x1="22" x2="733" y1="44.4883" y2="44.4883"/><text fill="#000000" font-family="sans-serif" font-size="14" font-weight="bold" lengthAdjust="spacingAndGlyphs" textLength="56" x="349.5" y="39.5352">Domain</text><!--cluster Domain.models--><rect fill="#FFFFFF" filter="url(#f60ljnigth616)" height="327" style="stroke: #000000; stroke-width: 1.5;" width="663" x="46" y="67"/><line style="stroke: #000000; stroke-width: 1.5;" x1="46" x2="709" y1="87.4883" y2="87.4883"/><text fill="#000000" font-family="sans-serif" font-size="14" font-weight="bold" lengthAdjust="spacingAndGlyphs" textLength="53" x="351" y="82.5352">models</text><!--cluster Domain.models.values--><rect fill="#FFFFFF" filter="url(#f60ljnigth616)" height="260" style="stroke: #000000; stroke-width: 1.5;" width="423" x="262" y="110"/><line style="stroke: #000000; stroke-width: 1.5;" x1="262" x2="685" y1="130.4883" y2="130.4883"/><text fill="#000000" font-family="sans-serif" font-size="14" font-weight="bold" lengthAdjust="spacingAndGlyphs" textLength="46" x="450.5" y="125.5352">values</text><!--class Domain.models.AccessContext--><rect fill="#FEFECE" filter="url(#f60ljnigth616)" height="60.9551" id="Domain.models.AccessContext" style="stroke: #A80036; stroke-width: 1.5;" width="150" x="79" y="158"/><ellipse cx="109.75" cy="174" fill="#ADD1B2" rx="11" ry="11" style="stroke: #A80036; stroke-width: 1.0;"/><path d="M112.2231,180.1431 Q111.6421,180.4419 111.0029,180.5913 Q110.3638,180.7407 109.6582,180.7407 Q107.1514,180.7407 105.8315,179.0889 Q104.5117,177.437 104.5117,174.3159 Q104.5117,171.1865 105.8315,169.5347 Q107.1514,167.8828 109.6582,167.8828 Q110.3638,167.8828 111.0112,168.0322 Q111.6587,168.1816 112.2231,168.4805 L112.2231,171.2031 Q111.5923,170.6221 110.9988,170.3523 Q110.4053,170.0825 109.7744,170.0825 Q108.4297,170.0825 107.7449,171.1492 Q107.0601,172.2158 107.0601,174.3159 Q107.0601,176.4077 107.7449,177.4744 Q108.4297,178.541 109.7744,178.541 Q110.4053,178.541 110.9988,178.2712 Q111.5923,178.0015 112.2231,177.4204 Z "/><text fill="#000000" font-family="sans-serif" font-size="12" lengthAdjust="spacingAndGlyphs" textLength="83" x="127.25" y="178.5352">AccessContext</text><line style="stroke: #A80036; stroke-width: 1.5;" x1="80" x2="228" y1="190" y2="190"/><ellipse cx="90" cy="201.9775" fill="none" rx="3" ry="3" style="stroke: #038048; stroke-width: 1.0;"/><text fill="#000000" font-family="sans-serif" font-size="11" lengthAdjust="spacingAndGlyphs" textLength="124" x="99" y="204.6348">status: SessionIDStatus</text><line style="stroke: #A80036; stroke-width: 1.5;" x1="80" x2="228" y1="210.9551" y2="210.9551"/><!--class Domain.models.ApplicationContext--><rect fill="#FEFECE" filter="url(#f60ljnigth616)" height="73.9102" id="Domain.models.ApplicationContext" style="stroke: #A80036; stroke-width: 1.5;" width="184" x="62" y="293"/><ellipse cx="96.8" cy="309" fill="#ADD1B2" rx="11" ry="11" style="stroke: #A80036; stroke-width: 1.0;"/><path d="M99.2731,315.1431 Q98.6921,315.4419 98.0529,315.5913 Q97.4138,315.7407 96.7082,315.7407 Q94.2014,315.7407 92.8815,314.0889 Q91.5617,312.437 91.5617,309.3159 Q91.5617,306.1865 92.8815,304.5347 Q94.2014,302.8828 96.7082,302.8828 Q97.4138,302.8828 98.0612,303.0322 Q98.7087,303.1816 99.2731,303.4805 L99.2731,306.2031 Q98.6423,305.6221 98.0488,305.3523 Q97.4553,305.0825 96.8244,305.0825 Q95.4797,305.0825 94.7949,306.1492 Q94.1101,307.2158 94.1101,309.3159 Q94.1101,311.4077 94.7949,312.4744 Q95.4797,313.541 96.8244,313.541 Q97.4553,313.541 98.0488,313.2712 Q98.6423,313.0015 99.2731,312.4204 Z "/><text fill="#000000" font-family="sans-serif" font-size="12" lengthAdjust="spacingAndGlyphs" textLength="108" x="115.2" y="313.5352">ApplicationContext</text><line style="stroke: #A80036; stroke-width: 1.5;" x1="63" x2="245" y1="325" y2="325"/><ellipse cx="73" cy="336.9775" fill="none" rx="3" ry="3" style="stroke: #038048; stroke-width: 1.0;"/><text fill="#000000" font-family="sans-serif" font-size="11" lengthAdjust="spacingAndGlyphs" textLength="151" x="82" y="339.6348">childContexts: Seq[Context]</text><line style="stroke: #A80036; stroke-width: 1.5;" x1="63" x2="245" y1="345.9551" y2="345.9551"/><ellipse cx="73" cy="357.9326" fill="#84BE84" rx="3" ry="3" style="stroke: #038048; stroke-width: 1.0;"/><text fill="#000000" font-family="sans-serif" font-size="11" lengthAdjust="spacingAndGlyphs" textLength="158" x="82" y="360.5898">get[T &lt;: Context](Class[T]): T</text><!--class Domain.models.values.SessionID--><rect fill="#FEFECE" filter="url(#f60ljnigth616)" height="60.9551" id="Domain.models.values.SessionID" style="stroke: #A80036; stroke-width: 1.5;" width="92" x="278" y="158"/><ellipse cx="295.7" cy="174" fill="#ADD1B2" rx="11" ry="11" style="stroke: #A80036; stroke-width: 1.0;"/><path d="M298.1731,180.1431 Q297.5921,180.4419 296.9529,180.5913 Q296.3138,180.7407 295.6082,180.7407 Q293.1014,180.7407 291.7815,179.0889 Q290.4617,177.437 290.4617,174.3159 Q290.4617,171.1865 291.7815,169.5347 Q293.1014,167.8828 295.6082,167.8828 Q296.3138,167.8828 296.9612,168.0322 Q297.6087,168.1816 298.1731,168.4805 L298.1731,171.2031 Q297.5423,170.6221 296.9488,170.3523 Q296.3553,170.0825 295.7244,170.0825 Q294.3797,170.0825 293.6949,171.1492 Q293.0101,172.2158 293.0101,174.3159 Q293.0101,176.4077 293.6949,177.4744 Q294.3797,178.541 295.7244,178.541 Q296.3553,178.541 296.9488,178.2712 Q297.5423,178.0015 298.1731,177.4204 Z "/><text fill="#000000" font-family="sans-serif" font-size="12" lengthAdjust="spacingAndGlyphs" textLength="54" x="310.3" y="178.5352">SessionID</text><line style="stroke: #A80036; stroke-width: 1.5;" x1="279" x2="369" y1="190" y2="190"/><ellipse cx="289" cy="201.9775" fill="none" rx="3" ry="3" style="stroke: #038048; stroke-width: 1.0;"/><text fill="#000000" font-family="sans-serif" font-size="11" lengthAdjust="spacingAndGlyphs" textLength="66" x="298" y="204.6348">value: String</text><line style="stroke: #A80036; stroke-width: 1.5;" x1="279" x2="369" y1="210.9551" y2="210.9551"/><!--class Domain.models.values.SessionIDStatus--><rect fill="#FEFECE" filter="url(#f60ljnigth616)" height="86.8652" id="Domain.models.values.SessionIDStatus" style="stroke: #A80036; stroke-width: 1.5;" width="196" x="473" y="145"/><ellipse cx="522.75" cy="161" fill="#B4A7E5" rx="11" ry="11" style="stroke: #A80036; stroke-width: 1.0;"/><path d="M519.1777,157.2651 L519.1777,155.1069 L526.5571,155.1069 L526.5571,157.2651 L524.0918,157.2651 L524.0918,165.3418 L526.5571,165.3418 L526.5571,167.5 L519.1777,167.5 L519.1777,165.3418 L521.6431,165.3418 L521.6431,157.2651 Z "/><text fill="#000000" font-family="sans-serif" font-size="12" font-style="italic" lengthAdjust="spacingAndGlyphs" textLength="88" x="543.25" y="165.5352">SessionIDStatus</text><line style="stroke: #A80036; stroke-width: 1.5;" x1="474" x2="668" y1="177" y2="177"/><line style="stroke: #A80036; stroke-width: 1.5;" x1="474" x2="668" y1="185" y2="185"/><ellipse cx="484" cy="196.9775" fill="#84BE84" rx="3" ry="3" style="stroke: #038048; stroke-width: 1.0;"/><text fill="#000000" font-family="sans-serif" font-size="11" lengthAdjust="spacingAndGlyphs" textLength="88" x="493" y="199.6348">exists(): Boolean</text><ellipse cx="484" cy="209.9326" fill="#84BE84" rx="3" ry="3" style="stroke: #038048; stroke-width: 1.0;"/><text fill="#000000" font-family="sans-serif" font-size="11" lengthAdjust="spacingAndGlyphs" textLength="97" x="493" y="212.5898">expired(): Boolean</text><ellipse cx="484" cy="222.8877" fill="#84BE84" rx="3" ry="3" style="stroke: #038048; stroke-width: 1.0;"/><text fill="#000000" font-family="sans-serif" font-size="11" lengthAdjust="spacingAndGlyphs" textLength="170" x="493" y="225.5449">existsAndNotExpired(): Boolean</text><!--class Domain.models.values.TimeoutSessionIDStatus--><rect fill="#FEFECE" filter="url(#f60ljnigth616)" height="48" id="Domain.models.values.TimeoutSessionIDStatus" style="stroke: #A80036; stroke-width: 1.5;" width="167" x="487.5" y="306"/><ellipse cx="502.5" cy="322" fill="#ADD1B2" rx="11" ry="11" style="stroke: #A80036; stroke-width: 1.0;"/><path d="M504.9731,328.1431 Q504.3921,328.4419 503.7529,328.5913 Q503.1138,328.7407 502.4082,328.7407 Q499.9014,328.7407 498.5815,327.0889 Q497.2617,325.437 497.2617,322.3159 Q497.2617,319.1865 498.5815,317.5347 Q499.9014,315.8828 502.4082,315.8828 Q503.1138,315.8828 503.7612,316.0322 Q504.4087,316.1816 504.9731,316.4805 L504.9731,319.2031 Q504.3423,318.6221 503.7488,318.3523 Q503.1553,318.0825 502.5244,318.0825 Q501.1797,318.0825 500.4949,319.1492 Q499.8101,320.2158 499.8101,322.3159 Q499.8101,324.4077 500.4949,325.4744 Q501.1797,326.541 502.5244,326.541 Q503.1553,326.541 503.7488,326.2712 Q504.3423,326.0015 504.9731,325.4204 Z "/><text fill="#000000" font-family="sans-serif" font-size="12" lengthAdjust="spacingAndGlyphs" textLength="135" x="516.5" y="326.5352">TimeoutSessionIDStatus</text><line style="stroke: #A80036; stroke-width: 1.5;" x1="488.5" x2="653.5" y1="338" y2="338"/><line style="stroke: #A80036; stroke-width: 1.5;" x1="488.5" x2="653.5" y1="346" y2="346"/><!--link Domain.models.AccessContext to Domain.models.ApplicationContext--><path d="M154,232.19 C154,251.56 154,274.23 154,292.76 " fill="none" id="Domain.models.AccessContext-Domain.models.ApplicationContext" style="stroke: #A80036; stroke-width: 1.0;"/><polygon fill="#FFFFFF" points="154,219.08,150,225.08,154,231.08,158,225.08,154,219.08" style="stroke: #A80036; stroke-width: 1.0;"/><!--link Domain.models.values.SessionID to Domain.models.values.SessionIDStatus--><path d="M370.17,188.5 C397.72,188.5 433.86,188.5 467.87,188.5 " fill="none" id="Domain.models.values.SessionID-Domain.models.values.SessionIDStatus" style="stroke: #A80036; stroke-width: 1.0; stroke-dasharray: 7.0,7.0;"/><polygon fill="#A80036" points="472.88,188.5,463.88,184.5,467.88,188.5,463.88,192.5,472.88,188.5" style="stroke: #A80036; stroke-width: 1.0;"/><text fill="#000000" font-family="sans-serif" font-size="13" lengthAdjust="spacingAndGlyphs" textLength="53" x="388.5" y="182.0684">describe</text><polygon fill="#000000" points="444.5,175.6553,450.5,178.6553,444.5,181.6553,444.5,175.6553" style="stroke: #000000; stroke-width: 1.0;"/><!--link Domain.models.values.SessionIDStatus to Domain.models.values.TimeoutSessionIDStatus--><path d="M571,232.11 C571,249.03 571,268.48 571,285.48 " fill="none" id="Domain.models.values.SessionIDStatus-Domain.models.values.TimeoutSessionIDStatus" style="stroke: #A80036; stroke-width: 1.0;"/><polygon fill="none" points="578,285.69,571,305.69,564,285.69,578,285.69" style="stroke: #A80036; stroke-width: 1.0;"/></g></svg>