<?xml version="1.0" encoding="UTF-8" standalone="no"?><svg xmlns="http://www.w3.org/2000/svg" xmlns:xlink="http://www.w3.org/1999/xlink" contentScriptType="application/ecmascript" contentStyleType="text/css" height="723px" preserveAspectRatio="none" style="width:566px;height:723px;" version="1.1" viewBox="0 0 566 723" width="566px" zoomAndPan="magnify"><defs><filter height="300%" id="f1d8sg8y9a8a2n" width="300%" x="-1" y="-1"><feGaussianBlur result="blurOut" stdDeviation="2.0"/><feColorMatrix in="blurOut" result="blurOut2" type="matrix" values="0 0 0 0 0 0 0 0 0 0 0 0 0 0 0 0 0 0 .4 0"/><feOffset dx="4.0" dy="4.0" in="blurOut2" result="blurOut3"/><feBlend in="SourceGraphic" in2="blurOut3" mode="normal"/></filter></defs><g><!--cluster UseCase--><rect fill="#FFFFFF" filter="url(#f1d8sg8y9a8a2n)" height="688" style="stroke: #000000; stroke-width: 1.5;" width="532" x="22" y="24"/><line style="stroke: #000000; stroke-width: 1.5;" x1="22" x2="554" y1="44.4883" y2="44.4883"/><text fill="#000000" font-family="sans-serif" font-size="14" font-weight="bold" lengthAdjust="spacingAndGlyphs" textLength="60" x="258" y="39.5352">UseCase</text><!--cluster UseCase.api--><polygon fill="#FFFFFF" filter="url(#f1d8sg8y9a8a2n)" points="46,67,117,67,124,89.4883,530,89.4883,530,688,46,688,46,67" style="stroke: #000000; stroke-width: 1.5;"/><line style="stroke: #000000; stroke-width: 1.5;" x1="46" x2="124" y1="89.4883" y2="89.4883"/><text fill="#000000" font-family="sans-serif" font-size="14" font-weight="bold" lengthAdjust="spacingAndGlyphs" textLength="65" x="50" y="82.5352">api.email</text><!--cluster UseCase.api.command--><polygon fill="#FFFFFF" filter="url(#f1d8sg8y9a8a2n)" points="296,316,372,316,379,338.4883,506,338.4883,506,664,296,664,296,316" style="stroke: #000000; stroke-width: 1.5;"/><line style="stroke: #000000; stroke-width: 1.5;" x1="296" x2="379" y1="338.4883" y2="338.4883"/><text fill="#000000" font-family="sans-serif" font-size="14" font-weight="bold" lengthAdjust="spacingAndGlyphs" textLength="70" x="300" y="331.5352">command</text><!--cluster UseCase.api.query--><polygon fill="#FFFFFF" filter="url(#f1d8sg8y9a8a2n)" points="305,110,351,110,358,132.4883,497,132.4883,497,292,305,292,305,110" style="stroke: #000000; stroke-width: 1.5;"/><line style="stroke: #000000; stroke-width: 1.5;" x1="305" x2="358" y1="132.4883" y2="132.4883"/><text fill="#000000" font-family="sans-serif" font-size="14" font-weight="bold" lengthAdjust="spacingAndGlyphs" textLength="40" x="309" y="125.5352">query</text><!--class UseCase.api.ApplicationContextManager--><rect fill="#FEFECE" filter="url(#f1d8sg8y9a8a2n)" height="48" id="UseCase.api.ApplicationContextManager" style="stroke: #A80036; stroke-width: 1.5;" width="190" x="62" y="393"/><ellipse cx="77" cy="409" fill="#B4A7E5" rx="11" ry="11" style="stroke: #A80036; stroke-width: 1.0;"/><path d="M73.4277,405.2651 L73.4277,403.1069 L80.8071,403.1069 L80.8071,405.2651 L78.3418,405.2651 L78.3418,413.3418 L80.8071,413.3418 L80.8071,415.5 L73.4277,415.5 L73.4277,413.3418 L75.8931,413.3418 L75.8931,405.2651 Z "/><text fill="#000000" font-family="sans-serif" font-size="12" font-style="italic" lengthAdjust="spacingAndGlyphs" textLength="158" x="91" y="413.5352">ApplicationContextManager</text><line style="stroke: #A80036; stroke-width: 1.5;" x1="63" x2="251" y1="425" y2="425"/><line style="stroke: #A80036; stroke-width: 1.5;" x1="63" x2="251" y1="433" y2="433"/><!--class UseCase.api.command.CreateApplicationContext--><rect fill="#FEFECE" filter="url(#f1d8sg8y9a8a2n)" height="48" id="UseCase.api.command.CreateApplicationContext" style="stroke: #A80036; stroke-width: 1.5;" width="178" x="312" y="351"/><ellipse cx="327" cy="367" fill="#B4A7E5" rx="11" ry="11" style="stroke: #A80036; stroke-width: 1.0;"/><path d="M323.4277,363.2651 L323.4277,361.1069 L330.8071,361.1069 L330.8071,363.2651 L328.3418,363.2651 L328.3418,371.3418 L330.8071,371.3418 L330.8071,373.5 L323.4277,373.5 L323.4277,371.3418 L325.8931,371.3418 L325.8931,363.2651 Z "/><text fill="#000000" font-family="sans-serif" font-size="12" font-style="italic" lengthAdjust="spacingAndGlyphs" textLength="146" x="341" y="371.5352">CreateApplicationContext</text><line style="stroke: #A80036; stroke-width: 1.5;" x1="313" x2="489" y1="383" y2="383"/><line style="stroke: #A80036; stroke-width: 1.5;" x1="313" x2="489" y1="391" y2="391"/><!--class UseCase.api.command.CreateSessionID--><rect fill="#FEFECE" filter="url(#f1d8sg8y9a8a2n)" height="48" id="UseCase.api.command.CreateSessionID" style="stroke: #A80036; stroke-width: 1.5;" width="124" x="339" y="434"/><ellipse cx="354" cy="450" fill="#B4A7E5" rx="11" ry="11" style="stroke: #A80036; stroke-width: 1.0;"/><path d="M350.4277,446.2651 L350.4277,444.1069 L357.8071,444.1069 L357.8071,446.2651 L355.3418,446.2651 L355.3418,454.3418 L357.8071,454.3418 L357.8071,456.5 L350.4277,456.5 L350.4277,454.3418 L352.8931,454.3418 L352.8931,446.2651 Z "/><text fill="#000000" font-family="sans-serif" font-size="12" font-style="italic" lengthAdjust="spacingAndGlyphs" textLength="92" x="368" y="454.5352">CreateSessionID</text><line style="stroke: #A80036; stroke-width: 1.5;" x1="340" x2="462" y1="466" y2="466"/><line style="stroke: #A80036; stroke-width: 1.5;" x1="340" x2="462" y1="474" y2="474"/><!--class UseCase.api.command.ResetSessionIDTimeout--><rect fill="#FEFECE" filter="url(#f1d8sg8y9a8a2n)" height="48" id="UseCase.api.command.ResetSessionIDTimeout" style="stroke: #A80036; stroke-width: 1.5;" width="165" x="318.5" y="517"/><ellipse cx="333.5" cy="533" fill="#B4A7E5" rx="11" ry="11" style="stroke: #A80036; stroke-width: 1.0;"/><path d="M329.9277,529.2651 L329.9277,527.1069 L337.3071,527.1069 L337.3071,529.2651 L334.8418,529.2651 L334.8418,537.3418 L337.3071,537.3418 L337.3071,539.5 L329.9277,539.5 L329.9277,537.3418 L332.3931,537.3418 L332.3931,529.2651 Z "/><text fill="#000000" font-family="sans-serif" font-size="12" font-style="italic" lengthAdjust="spacingAndGlyphs" textLength="133" x="347.5" y="537.5352">ResetSessionIDTimeout</text><line style="stroke: #A80036; stroke-width: 1.5;" x1="319.5" x2="482.5" y1="549" y2="549"/><line style="stroke: #A80036; stroke-width: 1.5;" x1="319.5" x2="482.5" y1="557" y2="557"/><!--class UseCase.api.command.SetContext--><rect fill="#FEFECE" filter="url(#f1d8sg8y9a8a2n)" height="48" id="UseCase.api.command.SetContext" style="stroke: #A80036; stroke-width: 1.5;" width="93" x="354.5" y="600"/><ellipse cx="369.5" cy="616" fill="#B4A7E5" rx="11" ry="11" style="stroke: #A80036; stroke-width: 1.0;"/><path d="M365.9277,612.2651 L365.9277,610.1069 L373.3071,610.1069 L373.3071,612.2651 L370.8418,612.2651 L370.8418,620.3418 L373.3071,620.3418 L373.3071,622.5 L365.9277,622.5 L365.9277,620.3418 L368.3931,620.3418 L368.3931,612.2651 Z "/><text fill="#000000" font-family="sans-serif" font-size="12" font-style="italic" lengthAdjust="spacingAndGlyphs" textLength="61" x="383.5" y="620.5352">SetContext</text><line style="stroke: #A80036; stroke-width: 1.5;" x1="355.5" x2="446.5" y1="632" y2="632"/><line style="stroke: #A80036; stroke-width: 1.5;" x1="355.5" x2="446.5" y1="640" y2="640"/><!--class UseCase.api.query.GetApplicationContext--><rect fill="#FEFECE" filter="url(#f1d8sg8y9a8a2n)" height="48" id="UseCase.api.query.GetApplicationContext" style="stroke: #A80036; stroke-width: 1.5;" width="160" x="321" y="145"/><ellipse cx="336" cy="161" fill="#B4A7E5" rx="11" ry="11" style="stroke: #A80036; stroke-width: 1.0;"/><path d="M332.4277,157.2651 L332.4277,155.1069 L339.8071,155.1069 L339.8071,157.2651 L337.3418,157.2651 L337.3418,165.3418 L339.8071,165.3418 L339.8071,167.5 L332.4277,167.5 L332.4277,165.3418 L334.8931,165.3418 L334.8931,157.2651 Z "/><text fill="#000000" font-family="sans-serif" font-size="12" font-style="italic" lengthAdjust="spacingAndGlyphs" textLength="128" x="350" y="165.5352">GetApplicationContext</text><line style="stroke: #A80036; stroke-width: 1.5;" x1="322" x2="480" y1="177" y2="177"/><line style="stroke: #A80036; stroke-width: 1.5;" x1="322" x2="480" y1="185" y2="185"/><!--class UseCase.api.query.VerifySessionID--><rect fill="#FEFECE" filter="url(#f1d8sg8y9a8a2n)" height="48" id="UseCase.api.query.VerifySessionID" style="stroke: #A80036; stroke-width: 1.5;" width="119" x="341.5" y="228"/><ellipse cx="356.5" cy="244" fill="#B4A7E5" rx="11" ry="11" style="stroke: #A80036; stroke-width: 1.0;"/><path d="M352.9277,240.2651 L352.9277,238.1069 L360.3071,238.1069 L360.3071,240.2651 L357.8418,240.2651 L357.8418,248.3418 L360.3071,248.3418 L360.3071,250.5 L352.9277,250.5 L352.9277,248.3418 L355.3931,248.3418 L355.3931,240.2651 Z "/><text fill="#000000" font-family="sans-serif" font-size="12" font-style="italic" lengthAdjust="spacingAndGlyphs" textLength="87" x="370.5" y="248.5352">VerifySessionID</text><line style="stroke: #A80036; stroke-width: 1.5;" x1="342.5" x2="459.5" y1="260" y2="260"/><line style="stroke: #A80036; stroke-width: 1.5;" x1="342.5" x2="459.5" y1="268" y2="268"/><!--link UseCase.api.ApplicationContextManager to UseCase.api.command.CreateApplicationContext--><path d="M252.26,400.64 C265.3,398.38 278.78,396.04 292.05,393.74 " fill="none" id="UseCase.api.ApplicationContextManager-UseCase.api.command.CreateApplicationContext" style="stroke: #A80036; stroke-width: 1.0;"/><polygon fill="none" points="291.03,386.81,311.94,390.28,293.43,400.6,291.03,386.81" style="stroke: #A80036; stroke-width: 1.0;"/><!--link UseCase.api.ApplicationContextManager to UseCase.api.command.CreateSessionID--><path d="M252.26,432.97 C274.28,436.7 297.55,440.64 318.94,444.27 " fill="none" id="UseCase.api.ApplicationContextManager-UseCase.api.command.CreateSessionID" style="stroke: #A80036; stroke-width: 1.0;"/><polygon fill="none" points="320.23,437.39,338.78,447.63,317.89,451.19,320.23,437.39" style="stroke: #A80036; stroke-width: 1.0;"/><!--link UseCase.api.ApplicationContextManager to UseCase.api.command.ResetSessionIDTimeout--><path d="M196.3,441.16 C234.65,465.35 288,499 288,499 C288,499 300.43,503.66 317,509.88 " fill="none" id="UseCase.api.ApplicationContextManager-UseCase.api.command.ResetSessionIDTimeout" style="stroke: #A80036; stroke-width: 1.0;"/><polygon fill="none" points="319.55,503.36,335.82,516.93,314.64,516.47,319.55,503.36" style="stroke: #A80036; stroke-width: 1.0;"/><!--link UseCase.api.ApplicationContextManager to UseCase.api.command.SetContext--><path d="M177.18,441.35 C213.34,487.24 288,582 288,582 C288,582 310.72,590.52 335.7,599.89 " fill="none" id="UseCase.api.ApplicationContextManager-UseCase.api.command.SetContext" style="stroke: #A80036; stroke-width: 1.0;"/><polygon fill="none" points="338.18,593.34,354.45,606.92,333.26,606.45,338.18,593.34" style="stroke: #A80036; stroke-width: 1.0;"/><!--link UseCase.api.ApplicationContextManager to UseCase.api.query.GetApplicationContext--><path d="M173.17,392.85 C207.46,338.25 288,210 288,210 C288,210 299.52,205.78 315.17,200.05 " fill="none" id="UseCase.api.ApplicationContextManager-UseCase.api.query.GetApplicationContext" style="stroke: #A80036; stroke-width: 1.0;"/><polygon fill="none" points="313.01,193.39,334.2,193.09,317.83,206.54,313.01,193.39" style="stroke: #A80036; stroke-width: 1.0;"/><!--link UseCase.api.ApplicationContextManager to UseCase.api.query.VerifySessionID--><path d="M193.45,392.83 C234.08,365.13 301.05,319.47 347.68,287.67 " fill="none" id="UseCase.api.ApplicationContextManager-UseCase.api.query.VerifySessionID" style="stroke: #A80036; stroke-width: 1.0;"/><polygon fill="none" points="343.99,281.72,364.46,276.23,351.88,293.28,343.99,281.72" style="stroke: #A80036; stroke-width: 1.0;"/></g></svg>